G04 #@! TF.FileFunction,Profile,NP*
%FSLAX46Y46*%
G04 Gerber Fmt 4.6, Leading zero omitted, Abs format (unit mm)*
G04 Created by KiCad (PCBNEW 4.0.7) date Tuesday, December 26, 2017 'AMt' 12:13:18 AM*
%MOMM*%
%LPD*%
G01*
G04 APERTURE LIST*
%ADD10C,0.100000*%
%ADD11C,0.150000*%
G04 APERTURE END LIST*
D10*
D11*
X97790000Y-146050000D02*
X140970000Y-146050000D01*
X96520000Y-144780000D02*
G75*
G03X97790000Y-146050000I1270000J0D01*
G01*
X96520000Y-67310000D02*
X96520000Y-144780000D01*
X142240000Y-67310000D02*
X142240000Y-144780000D01*
X97790000Y-66040000D02*
X140970000Y-66040000D01*
X142240000Y-67310000D02*
G75*
G03X140970000Y-66040000I-1270000J0D01*
G01*
X97790000Y-66040000D02*
G75*
G03X96520000Y-67310000I0J-1270000D01*
G01*
X139700000Y-68580000D02*
G75*
G03X139700000Y-68580000I-635000J0D01*
G01*
X137795000Y-68580000D02*
G75*
G03X137795000Y-68580000I-635000J0D01*
G01*
X135890000Y-68580000D02*
G75*
G03X135890000Y-68580000I-635000J0D01*
G01*
X133985000Y-68580000D02*
G75*
G03X133985000Y-68580000I-635000J0D01*
G01*
X132080000Y-68580000D02*
G75*
G03X132080000Y-68580000I-635000J0D01*
G01*
X130175000Y-68580000D02*
G75*
G03X130175000Y-68580000I-635000J0D01*
G01*
X128270000Y-68580000D02*
G75*
G03X128270000Y-68580000I-635000J0D01*
G01*
X139700000Y-70485000D02*
G75*
G03X139700000Y-70485000I-635000J0D01*
G01*
X137795000Y-70485000D02*
G75*
G03X137795000Y-70485000I-635000J0D01*
G01*
X135890000Y-70485000D02*
G75*
G03X135890000Y-70485000I-635000J0D01*
G01*
X133985000Y-70485000D02*
G75*
G03X133985000Y-70485000I-635000J0D01*
G01*
X132080000Y-70485000D02*
G75*
G03X132080000Y-70485000I-635000J0D01*
G01*
X130175000Y-70485000D02*
G75*
G03X130175000Y-70485000I-635000J0D01*
G01*
X128270000Y-70485000D02*
G75*
G03X128270000Y-70485000I-635000J0D01*
G01*
X127000000Y-92710000D02*
X127635000Y-92710000D01*
X132715000Y-86995000D02*
X127000000Y-92710000D01*
X138430000Y-92710000D02*
X132715000Y-86995000D01*
X127635000Y-92710000D02*
X138430000Y-92710000D01*
X140970000Y-146050000D02*
G75*
G03X142240000Y-144780000I0J1270000D01*
G01*
M02*
