G04 #@! TF.FileFunction,Legend,Top*
%FSLAX46Y46*%
G04 Gerber Fmt 4.6, Leading zero omitted, Abs format (unit mm)*
G04 Created by KiCad (PCBNEW 4.0.7) date Tuesday, December 26, 2017 'AMt' 12:13:18 AM*
%MOMM*%
%LPD*%
G01*
G04 APERTURE LIST*
%ADD10C,0.100000*%
%ADD11C,0.150000*%
%ADD12C,0.120000*%
%ADD13C,0.010000*%
G04 APERTURE END LIST*
D10*
D11*
X99935000Y-133635000D02*
X114935000Y-143635000D01*
X129935000Y-133635000D02*
X114935000Y-143635000D01*
X129935000Y-117635000D02*
X129935000Y-133635000D01*
X99935000Y-117635000D02*
X129935000Y-117635000D01*
X99935000Y-117635000D02*
X99935000Y-133635000D01*
D12*
X104275000Y-102450000D02*
X105275000Y-102450000D01*
X105275000Y-100750000D02*
X104275000Y-100750000D01*
X112460000Y-108690000D02*
X111060000Y-108690000D01*
X111060000Y-108690000D02*
X111060000Y-111490000D01*
X112460000Y-108690000D02*
X112460000Y-111490000D01*
X112995000Y-105020000D02*
X111795000Y-105020000D01*
X111795000Y-103260000D02*
X112995000Y-103260000D01*
D11*
X102700000Y-103500000D02*
X102700000Y-103525000D01*
X106850000Y-103500000D02*
X106850000Y-103615000D01*
X106850000Y-112400000D02*
X106850000Y-112285000D01*
X102700000Y-112400000D02*
X102700000Y-112285000D01*
X102700000Y-103500000D02*
X106850000Y-103500000D01*
X102700000Y-112400000D02*
X106850000Y-112400000D01*
X102700000Y-103525000D02*
X101325000Y-103525000D01*
D13*
G36*
X112904594Y-83176734D02*
X112910930Y-83197166D01*
X112918155Y-83232802D01*
X112921659Y-83254850D01*
X112932420Y-83314414D01*
X112949506Y-83391190D01*
X112971094Y-83478327D01*
X112995360Y-83568981D01*
X113020482Y-83656302D01*
X113044635Y-83733444D01*
X113063146Y-83786174D01*
X113086708Y-83844530D01*
X113117744Y-83916191D01*
X113152132Y-83991863D01*
X113184168Y-84059034D01*
X113211755Y-84116040D01*
X113234301Y-84164224D01*
X113249896Y-84199377D01*
X113256629Y-84217290D01*
X113256631Y-84218676D01*
X113245053Y-84224909D01*
X113212447Y-84242258D01*
X113160240Y-84269967D01*
X113089859Y-84307281D01*
X113002731Y-84353443D01*
X112900283Y-84407698D01*
X112783942Y-84469291D01*
X112655136Y-84537466D01*
X112515291Y-84611468D01*
X112365835Y-84690540D01*
X112208193Y-84773927D01*
X112043795Y-84860874D01*
X111994950Y-84886705D01*
X111827982Y-84975049D01*
X111666794Y-85060431D01*
X111512870Y-85142060D01*
X111367692Y-85219147D01*
X111232743Y-85290899D01*
X111109507Y-85356527D01*
X110999467Y-85415240D01*
X110904105Y-85466247D01*
X110824904Y-85508758D01*
X110763348Y-85541981D01*
X110720920Y-85565126D01*
X110699102Y-85577403D01*
X110697047Y-85578678D01*
X110657580Y-85612499D01*
X110607786Y-85667681D01*
X110548646Y-85742841D01*
X110481140Y-85836596D01*
X110406247Y-85947563D01*
X110324948Y-86074357D01*
X110238223Y-86215596D01*
X110197509Y-86283800D01*
X110145944Y-86370482D01*
X110103484Y-86440217D01*
X110066509Y-86498040D01*
X110031402Y-86548990D01*
X109994545Y-86598102D01*
X109952320Y-86650414D01*
X109901110Y-86710962D01*
X109839401Y-86782361D01*
X109784787Y-86844511D01*
X109742152Y-86890668D01*
X109707406Y-86924512D01*
X109676461Y-86949722D01*
X109645227Y-86969978D01*
X109610065Y-86988736D01*
X109534364Y-87020691D01*
X109471866Y-87033280D01*
X109419508Y-87026644D01*
X109374227Y-87000925D01*
X109372750Y-86999695D01*
X109343397Y-86972174D01*
X109319487Y-86941912D01*
X109300018Y-86905560D01*
X109283988Y-86859764D01*
X109270398Y-86801175D01*
X109258246Y-86726441D01*
X109246531Y-86632210D01*
X109237412Y-86546551D01*
X109218116Y-86363583D01*
X109199846Y-86204619D01*
X109182372Y-86068293D01*
X109165467Y-85953240D01*
X109148903Y-85858095D01*
X109132452Y-85781492D01*
X109115886Y-85722066D01*
X109098977Y-85678452D01*
X109089576Y-85660917D01*
X109074399Y-85642353D01*
X109042813Y-85608503D01*
X108996925Y-85561466D01*
X108938844Y-85503344D01*
X108870676Y-85436236D01*
X108794530Y-85362243D01*
X108712513Y-85283465D01*
X108673900Y-85246679D01*
X108570894Y-85148472D01*
X108484934Y-85065581D01*
X108414379Y-84996117D01*
X108357590Y-84938190D01*
X108312927Y-84889911D01*
X108278751Y-84849390D01*
X108253421Y-84814739D01*
X108235298Y-84784067D01*
X108222742Y-84755485D01*
X108214114Y-84727105D01*
X108210936Y-84713237D01*
X108210069Y-84654685D01*
X108228362Y-84589738D01*
X108263670Y-84525835D01*
X108265761Y-84522916D01*
X108287196Y-84496472D01*
X108310237Y-84478052D01*
X108342156Y-84463533D01*
X108390226Y-84448788D01*
X108402323Y-84445475D01*
X108549244Y-84409956D01*
X108681698Y-84388184D01*
X108806546Y-84380118D01*
X108930652Y-84385716D01*
X109060878Y-84404935D01*
X109204087Y-84437734D01*
X109214614Y-84440495D01*
X109331209Y-84469983D01*
X109429793Y-84491583D01*
X109516230Y-84506071D01*
X109596386Y-84514221D01*
X109676126Y-84516809D01*
X109761316Y-84514609D01*
X109771699Y-84514085D01*
X109846928Y-84509206D01*
X109916985Y-84502268D01*
X109984719Y-84492403D01*
X110052983Y-84478745D01*
X110124629Y-84460429D01*
X110202508Y-84436587D01*
X110289471Y-84406352D01*
X110388370Y-84368859D01*
X110502057Y-84323240D01*
X110633384Y-84268630D01*
X110769400Y-84210913D01*
X110984461Y-84116719D01*
X111218255Y-84009915D01*
X111468222Y-83891744D01*
X111731806Y-83763453D01*
X112006451Y-83626286D01*
X112289599Y-83481488D01*
X112578693Y-83330304D01*
X112585500Y-83326704D01*
X112689776Y-83272221D01*
X112774015Y-83229668D01*
X112837781Y-83199250D01*
X112880642Y-83181172D01*
X112902164Y-83175636D01*
X112904594Y-83176734D01*
X112904594Y-83176734D01*
G37*
X112904594Y-83176734D02*
X112910930Y-83197166D01*
X112918155Y-83232802D01*
X112921659Y-83254850D01*
X112932420Y-83314414D01*
X112949506Y-83391190D01*
X112971094Y-83478327D01*
X112995360Y-83568981D01*
X113020482Y-83656302D01*
X113044635Y-83733444D01*
X113063146Y-83786174D01*
X113086708Y-83844530D01*
X113117744Y-83916191D01*
X113152132Y-83991863D01*
X113184168Y-84059034D01*
X113211755Y-84116040D01*
X113234301Y-84164224D01*
X113249896Y-84199377D01*
X113256629Y-84217290D01*
X113256631Y-84218676D01*
X113245053Y-84224909D01*
X113212447Y-84242258D01*
X113160240Y-84269967D01*
X113089859Y-84307281D01*
X113002731Y-84353443D01*
X112900283Y-84407698D01*
X112783942Y-84469291D01*
X112655136Y-84537466D01*
X112515291Y-84611468D01*
X112365835Y-84690540D01*
X112208193Y-84773927D01*
X112043795Y-84860874D01*
X111994950Y-84886705D01*
X111827982Y-84975049D01*
X111666794Y-85060431D01*
X111512870Y-85142060D01*
X111367692Y-85219147D01*
X111232743Y-85290899D01*
X111109507Y-85356527D01*
X110999467Y-85415240D01*
X110904105Y-85466247D01*
X110824904Y-85508758D01*
X110763348Y-85541981D01*
X110720920Y-85565126D01*
X110699102Y-85577403D01*
X110697047Y-85578678D01*
X110657580Y-85612499D01*
X110607786Y-85667681D01*
X110548646Y-85742841D01*
X110481140Y-85836596D01*
X110406247Y-85947563D01*
X110324948Y-86074357D01*
X110238223Y-86215596D01*
X110197509Y-86283800D01*
X110145944Y-86370482D01*
X110103484Y-86440217D01*
X110066509Y-86498040D01*
X110031402Y-86548990D01*
X109994545Y-86598102D01*
X109952320Y-86650414D01*
X109901110Y-86710962D01*
X109839401Y-86782361D01*
X109784787Y-86844511D01*
X109742152Y-86890668D01*
X109707406Y-86924512D01*
X109676461Y-86949722D01*
X109645227Y-86969978D01*
X109610065Y-86988736D01*
X109534364Y-87020691D01*
X109471866Y-87033280D01*
X109419508Y-87026644D01*
X109374227Y-87000925D01*
X109372750Y-86999695D01*
X109343397Y-86972174D01*
X109319487Y-86941912D01*
X109300018Y-86905560D01*
X109283988Y-86859764D01*
X109270398Y-86801175D01*
X109258246Y-86726441D01*
X109246531Y-86632210D01*
X109237412Y-86546551D01*
X109218116Y-86363583D01*
X109199846Y-86204619D01*
X109182372Y-86068293D01*
X109165467Y-85953240D01*
X109148903Y-85858095D01*
X109132452Y-85781492D01*
X109115886Y-85722066D01*
X109098977Y-85678452D01*
X109089576Y-85660917D01*
X109074399Y-85642353D01*
X109042813Y-85608503D01*
X108996925Y-85561466D01*
X108938844Y-85503344D01*
X108870676Y-85436236D01*
X108794530Y-85362243D01*
X108712513Y-85283465D01*
X108673900Y-85246679D01*
X108570894Y-85148472D01*
X108484934Y-85065581D01*
X108414379Y-84996117D01*
X108357590Y-84938190D01*
X108312927Y-84889911D01*
X108278751Y-84849390D01*
X108253421Y-84814739D01*
X108235298Y-84784067D01*
X108222742Y-84755485D01*
X108214114Y-84727105D01*
X108210936Y-84713237D01*
X108210069Y-84654685D01*
X108228362Y-84589738D01*
X108263670Y-84525835D01*
X108265761Y-84522916D01*
X108287196Y-84496472D01*
X108310237Y-84478052D01*
X108342156Y-84463533D01*
X108390226Y-84448788D01*
X108402323Y-84445475D01*
X108549244Y-84409956D01*
X108681698Y-84388184D01*
X108806546Y-84380118D01*
X108930652Y-84385716D01*
X109060878Y-84404935D01*
X109204087Y-84437734D01*
X109214614Y-84440495D01*
X109331209Y-84469983D01*
X109429793Y-84491583D01*
X109516230Y-84506071D01*
X109596386Y-84514221D01*
X109676126Y-84516809D01*
X109761316Y-84514609D01*
X109771699Y-84514085D01*
X109846928Y-84509206D01*
X109916985Y-84502268D01*
X109984719Y-84492403D01*
X110052983Y-84478745D01*
X110124629Y-84460429D01*
X110202508Y-84436587D01*
X110289471Y-84406352D01*
X110388370Y-84368859D01*
X110502057Y-84323240D01*
X110633384Y-84268630D01*
X110769400Y-84210913D01*
X110984461Y-84116719D01*
X111218255Y-84009915D01*
X111468222Y-83891744D01*
X111731806Y-83763453D01*
X112006451Y-83626286D01*
X112289599Y-83481488D01*
X112578693Y-83330304D01*
X112585500Y-83326704D01*
X112689776Y-83272221D01*
X112774015Y-83229668D01*
X112837781Y-83199250D01*
X112880642Y-83181172D01*
X112902164Y-83175636D01*
X112904594Y-83176734D01*
G36*
X120805312Y-83182749D02*
X120838478Y-83197829D01*
X120891764Y-83222262D01*
X120963714Y-83255373D01*
X121052871Y-83296490D01*
X121157775Y-83344938D01*
X121276971Y-83400045D01*
X121409000Y-83461135D01*
X121552405Y-83527536D01*
X121705728Y-83598574D01*
X121867512Y-83673575D01*
X122036299Y-83751866D01*
X122091450Y-83777457D01*
X122264311Y-83857606D01*
X122432093Y-83935267D01*
X122593195Y-84009708D01*
X122746018Y-84080194D01*
X122888964Y-84145993D01*
X123020432Y-84206371D01*
X123138824Y-84260596D01*
X123242540Y-84307933D01*
X123329981Y-84347650D01*
X123399548Y-84379013D01*
X123449642Y-84401289D01*
X123478664Y-84413744D01*
X123482100Y-84415108D01*
X123631102Y-84462643D01*
X123784786Y-84491710D01*
X123902155Y-84502199D01*
X123990558Y-84504281D01*
X124077253Y-84500275D01*
X124168164Y-84489416D01*
X124269211Y-84470941D01*
X124386317Y-84444085D01*
X124422262Y-84435094D01*
X124548764Y-84405107D01*
X124657369Y-84384659D01*
X124753616Y-84373488D01*
X124843045Y-84371333D01*
X124931191Y-84377934D01*
X125023595Y-84393030D01*
X125075950Y-84404331D01*
X125188754Y-84434502D01*
X125291168Y-84470119D01*
X125379885Y-84509609D01*
X125451601Y-84551399D01*
X125503010Y-84593917D01*
X125520734Y-84615967D01*
X125536021Y-84657632D01*
X125532132Y-84707517D01*
X125508637Y-84766195D01*
X125465110Y-84834237D01*
X125401123Y-84912217D01*
X125316247Y-85000708D01*
X125210055Y-85100282D01*
X125082118Y-85211513D01*
X125065173Y-85225764D01*
X124951523Y-85321773D01*
X124856810Y-85403455D01*
X124779821Y-85471945D01*
X124719341Y-85528376D01*
X124674157Y-85573884D01*
X124643055Y-85609603D01*
X124624821Y-85636667D01*
X124624191Y-85637880D01*
X124614455Y-85659755D01*
X124605809Y-85686390D01*
X124597869Y-85720503D01*
X124590254Y-85764814D01*
X124582580Y-85822041D01*
X124574465Y-85894904D01*
X124565527Y-85986122D01*
X124555381Y-86098412D01*
X124548941Y-86172555D01*
X124537226Y-86301912D01*
X124525925Y-86410122D01*
X124514334Y-86501414D01*
X124501754Y-86580015D01*
X124487483Y-86650154D01*
X124470819Y-86716060D01*
X124451061Y-86781961D01*
X124444525Y-86802060D01*
X124421851Y-86865477D01*
X124400306Y-86911713D01*
X124375767Y-86948442D01*
X124350675Y-86976685D01*
X124309117Y-87013572D01*
X124271205Y-87030636D01*
X124229411Y-87029137D01*
X124176207Y-87010335D01*
X124168967Y-87007098D01*
X124112456Y-86976043D01*
X124044293Y-86930181D01*
X123969586Y-86873793D01*
X123893438Y-86811162D01*
X123820955Y-86746570D01*
X123757242Y-86684299D01*
X123707404Y-86628631D01*
X123689490Y-86604911D01*
X123668340Y-86571039D01*
X123638756Y-86519002D01*
X123603293Y-86453532D01*
X123564503Y-86379365D01*
X123524941Y-86301236D01*
X123516296Y-86283800D01*
X123448643Y-86151531D01*
X123385088Y-86038390D01*
X123322104Y-85939272D01*
X123256161Y-85849076D01*
X123183733Y-85762701D01*
X123101290Y-85675044D01*
X123081675Y-85655297D01*
X122941601Y-85515450D01*
X121697375Y-84869541D01*
X121531700Y-84783502D01*
X121372325Y-84700667D01*
X121220700Y-84621796D01*
X121078277Y-84547647D01*
X120946508Y-84478976D01*
X120826844Y-84416543D01*
X120720738Y-84361104D01*
X120629639Y-84313419D01*
X120555001Y-84274245D01*
X120498274Y-84244339D01*
X120460910Y-84224461D01*
X120444361Y-84215367D01*
X120443682Y-84214914D01*
X120445795Y-84201158D01*
X120457809Y-84168887D01*
X120478003Y-84122173D01*
X120504656Y-84065086D01*
X120522323Y-84028972D01*
X120602544Y-83852187D01*
X120669213Y-83670242D01*
X120724944Y-83475538D01*
X120751282Y-83363007D01*
X120765483Y-83298486D01*
X120777795Y-83243669D01*
X120787218Y-83202914D01*
X120792752Y-83180584D01*
X120793726Y-83177695D01*
X120805312Y-83182749D01*
X120805312Y-83182749D01*
G37*
X120805312Y-83182749D02*
X120838478Y-83197829D01*
X120891764Y-83222262D01*
X120963714Y-83255373D01*
X121052871Y-83296490D01*
X121157775Y-83344938D01*
X121276971Y-83400045D01*
X121409000Y-83461135D01*
X121552405Y-83527536D01*
X121705728Y-83598574D01*
X121867512Y-83673575D01*
X122036299Y-83751866D01*
X122091450Y-83777457D01*
X122264311Y-83857606D01*
X122432093Y-83935267D01*
X122593195Y-84009708D01*
X122746018Y-84080194D01*
X122888964Y-84145993D01*
X123020432Y-84206371D01*
X123138824Y-84260596D01*
X123242540Y-84307933D01*
X123329981Y-84347650D01*
X123399548Y-84379013D01*
X123449642Y-84401289D01*
X123478664Y-84413744D01*
X123482100Y-84415108D01*
X123631102Y-84462643D01*
X123784786Y-84491710D01*
X123902155Y-84502199D01*
X123990558Y-84504281D01*
X124077253Y-84500275D01*
X124168164Y-84489416D01*
X124269211Y-84470941D01*
X124386317Y-84444085D01*
X124422262Y-84435094D01*
X124548764Y-84405107D01*
X124657369Y-84384659D01*
X124753616Y-84373488D01*
X124843045Y-84371333D01*
X124931191Y-84377934D01*
X125023595Y-84393030D01*
X125075950Y-84404331D01*
X125188754Y-84434502D01*
X125291168Y-84470119D01*
X125379885Y-84509609D01*
X125451601Y-84551399D01*
X125503010Y-84593917D01*
X125520734Y-84615967D01*
X125536021Y-84657632D01*
X125532132Y-84707517D01*
X125508637Y-84766195D01*
X125465110Y-84834237D01*
X125401123Y-84912217D01*
X125316247Y-85000708D01*
X125210055Y-85100282D01*
X125082118Y-85211513D01*
X125065173Y-85225764D01*
X124951523Y-85321773D01*
X124856810Y-85403455D01*
X124779821Y-85471945D01*
X124719341Y-85528376D01*
X124674157Y-85573884D01*
X124643055Y-85609603D01*
X124624821Y-85636667D01*
X124624191Y-85637880D01*
X124614455Y-85659755D01*
X124605809Y-85686390D01*
X124597869Y-85720503D01*
X124590254Y-85764814D01*
X124582580Y-85822041D01*
X124574465Y-85894904D01*
X124565527Y-85986122D01*
X124555381Y-86098412D01*
X124548941Y-86172555D01*
X124537226Y-86301912D01*
X124525925Y-86410122D01*
X124514334Y-86501414D01*
X124501754Y-86580015D01*
X124487483Y-86650154D01*
X124470819Y-86716060D01*
X124451061Y-86781961D01*
X124444525Y-86802060D01*
X124421851Y-86865477D01*
X124400306Y-86911713D01*
X124375767Y-86948442D01*
X124350675Y-86976685D01*
X124309117Y-87013572D01*
X124271205Y-87030636D01*
X124229411Y-87029137D01*
X124176207Y-87010335D01*
X124168967Y-87007098D01*
X124112456Y-86976043D01*
X124044293Y-86930181D01*
X123969586Y-86873793D01*
X123893438Y-86811162D01*
X123820955Y-86746570D01*
X123757242Y-86684299D01*
X123707404Y-86628631D01*
X123689490Y-86604911D01*
X123668340Y-86571039D01*
X123638756Y-86519002D01*
X123603293Y-86453532D01*
X123564503Y-86379365D01*
X123524941Y-86301236D01*
X123516296Y-86283800D01*
X123448643Y-86151531D01*
X123385088Y-86038390D01*
X123322104Y-85939272D01*
X123256161Y-85849076D01*
X123183733Y-85762701D01*
X123101290Y-85675044D01*
X123081675Y-85655297D01*
X122941601Y-85515450D01*
X121697375Y-84869541D01*
X121531700Y-84783502D01*
X121372325Y-84700667D01*
X121220700Y-84621796D01*
X121078277Y-84547647D01*
X120946508Y-84478976D01*
X120826844Y-84416543D01*
X120720738Y-84361104D01*
X120629639Y-84313419D01*
X120555001Y-84274245D01*
X120498274Y-84244339D01*
X120460910Y-84224461D01*
X120444361Y-84215367D01*
X120443682Y-84214914D01*
X120445795Y-84201158D01*
X120457809Y-84168887D01*
X120478003Y-84122173D01*
X120504656Y-84065086D01*
X120522323Y-84028972D01*
X120602544Y-83852187D01*
X120669213Y-83670242D01*
X120724944Y-83475538D01*
X120751282Y-83363007D01*
X120765483Y-83298486D01*
X120777795Y-83243669D01*
X120787218Y-83202914D01*
X120792752Y-83180584D01*
X120793726Y-83177695D01*
X120805312Y-83182749D01*
G36*
X120707997Y-79919643D02*
X120699805Y-79952058D01*
X120682402Y-80003667D01*
X120656410Y-80072495D01*
X120647224Y-80095725D01*
X120533975Y-80395847D01*
X120440144Y-80680024D01*
X120365646Y-80948583D01*
X120310395Y-81201850D01*
X120274308Y-81440151D01*
X120262091Y-81572100D01*
X120259091Y-81643780D01*
X120261675Y-81708048D01*
X120270679Y-81777039D01*
X120279580Y-81826100D01*
X120306534Y-81992644D01*
X120323342Y-82164701D01*
X120330423Y-82348431D01*
X120328419Y-82542872D01*
X120313113Y-82803771D01*
X120283703Y-83049724D01*
X120240517Y-83279133D01*
X120183881Y-83490400D01*
X120114120Y-83681927D01*
X120080395Y-83757344D01*
X119982230Y-83942803D01*
X119866051Y-84125832D01*
X119734677Y-84303456D01*
X119590930Y-84472696D01*
X119437629Y-84630576D01*
X119277595Y-84774120D01*
X119113650Y-84900349D01*
X118948612Y-85006287D01*
X118844703Y-85061584D01*
X118743520Y-85107450D01*
X118621693Y-85156748D01*
X118483466Y-85207839D01*
X118333086Y-85259085D01*
X118332250Y-85259359D01*
X118187099Y-85304291D01*
X118046487Y-85342073D01*
X117906488Y-85373252D01*
X117763176Y-85398376D01*
X117612625Y-85417992D01*
X117450910Y-85432647D01*
X117274104Y-85442887D01*
X117078282Y-85449261D01*
X116954300Y-85451404D01*
X116845408Y-85452331D01*
X116735367Y-85452455D01*
X116629291Y-85451829D01*
X116532292Y-85450504D01*
X116449483Y-85448535D01*
X116385977Y-85445974D01*
X116376450Y-85445420D01*
X116230686Y-85434249D01*
X116082747Y-85419012D01*
X115940377Y-85400662D01*
X115811320Y-85380152D01*
X115747800Y-85368088D01*
X115628512Y-85341700D01*
X115501881Y-85310048D01*
X115372477Y-85274546D01*
X115244870Y-85236610D01*
X115123633Y-85197657D01*
X115013336Y-85159103D01*
X114918550Y-85122363D01*
X114843846Y-85088853D01*
X114839750Y-85086798D01*
X114670452Y-84989206D01*
X114502105Y-84869352D01*
X114337348Y-84730315D01*
X114178821Y-84575178D01*
X114029166Y-84407020D01*
X113891021Y-84228923D01*
X113767028Y-84043967D01*
X113659825Y-83855234D01*
X113572054Y-83665804D01*
X113532720Y-83561573D01*
X113477114Y-83375297D01*
X113431937Y-83171748D01*
X113397599Y-82956403D01*
X113374512Y-82734743D01*
X113363088Y-82512246D01*
X113363739Y-82294389D01*
X113376876Y-82086653D01*
X113402911Y-81894515D01*
X113406139Y-81876903D01*
X113423415Y-81772220D01*
X113432377Y-81680884D01*
X113433484Y-81592405D01*
X113427197Y-81496293D01*
X113424151Y-81466371D01*
X113398189Y-81275810D01*
X113360489Y-81078937D01*
X113310308Y-80872969D01*
X113246901Y-80655124D01*
X113169524Y-80422618D01*
X113079583Y-80178278D01*
X113053482Y-80110808D01*
X113029588Y-80050172D01*
X113009771Y-80001025D01*
X112995897Y-79968020D01*
X112991023Y-79957562D01*
X112982522Y-79935061D01*
X112983304Y-79925462D01*
X112997561Y-79925838D01*
X113029516Y-79932514D01*
X113072658Y-79944096D01*
X113079172Y-79946015D01*
X113125851Y-79960704D01*
X113154925Y-79973771D01*
X113173279Y-79990339D01*
X113187799Y-80015528D01*
X113195631Y-80032640D01*
X113231759Y-80116838D01*
X113273705Y-80220096D01*
X113319546Y-80337285D01*
X113367359Y-80463273D01*
X113415220Y-80592928D01*
X113461208Y-80721121D01*
X113503400Y-80842721D01*
X113536550Y-80942324D01*
X113601026Y-81146993D01*
X113656961Y-81338349D01*
X113705676Y-81522248D01*
X113748494Y-81704546D01*
X113786735Y-81891099D01*
X113821720Y-82087764D01*
X113854771Y-82300396D01*
X113874566Y-82440588D01*
X113919504Y-82769327D01*
X113969924Y-82829549D01*
X114049209Y-82916395D01*
X114145744Y-83009471D01*
X114253880Y-83104014D01*
X114367968Y-83195267D01*
X114482358Y-83278467D01*
X114573050Y-83337731D01*
X114647943Y-83380737D01*
X114739553Y-83428621D01*
X114840633Y-83477983D01*
X114943936Y-83525423D01*
X115042216Y-83567540D01*
X115128226Y-83600935D01*
X115150900Y-83608862D01*
X115348702Y-83669459D01*
X115557355Y-83720946D01*
X115779569Y-83763778D01*
X116018058Y-83798409D01*
X116275533Y-83825296D01*
X116554706Y-83844891D01*
X116560600Y-83845215D01*
X116864356Y-83856328D01*
X117149172Y-83854992D01*
X117418445Y-83840850D01*
X117675572Y-83813547D01*
X117923949Y-83772727D01*
X118166972Y-83718034D01*
X118395750Y-83652974D01*
X118620631Y-83575547D01*
X118830978Y-83488791D01*
X119025296Y-83393667D01*
X119202090Y-83291134D01*
X119359867Y-83182154D01*
X119497132Y-83067687D01*
X119612391Y-82948695D01*
X119704149Y-82826139D01*
X119719120Y-82802002D01*
X119733372Y-82776791D01*
X119744768Y-82751742D01*
X119754282Y-82722620D01*
X119762889Y-82685192D01*
X119771562Y-82635222D01*
X119781276Y-82568477D01*
X119792944Y-82481187D01*
X119821683Y-82270764D01*
X119850401Y-82080675D01*
X119880244Y-81905882D01*
X119912356Y-81741347D01*
X119947883Y-81582030D01*
X119987972Y-81422893D01*
X120033767Y-81258897D01*
X120086414Y-81085003D01*
X120147058Y-80896174D01*
X120167102Y-80835500D01*
X120201004Y-80735441D01*
X120237509Y-80631239D01*
X120275465Y-80525876D01*
X120313721Y-80422332D01*
X120351127Y-80323590D01*
X120386531Y-80232629D01*
X120418781Y-80152433D01*
X120446726Y-80085982D01*
X120469214Y-80036258D01*
X120485096Y-80006242D01*
X120489735Y-80000004D01*
X120508901Y-79987666D01*
X120544501Y-79969985D01*
X120589090Y-79950110D01*
X120635225Y-79931188D01*
X120675465Y-79916367D01*
X120702365Y-79908793D01*
X120706353Y-79908400D01*
X120707997Y-79919643D01*
X120707997Y-79919643D01*
G37*
X120707997Y-79919643D02*
X120699805Y-79952058D01*
X120682402Y-80003667D01*
X120656410Y-80072495D01*
X120647224Y-80095725D01*
X120533975Y-80395847D01*
X120440144Y-80680024D01*
X120365646Y-80948583D01*
X120310395Y-81201850D01*
X120274308Y-81440151D01*
X120262091Y-81572100D01*
X120259091Y-81643780D01*
X120261675Y-81708048D01*
X120270679Y-81777039D01*
X120279580Y-81826100D01*
X120306534Y-81992644D01*
X120323342Y-82164701D01*
X120330423Y-82348431D01*
X120328419Y-82542872D01*
X120313113Y-82803771D01*
X120283703Y-83049724D01*
X120240517Y-83279133D01*
X120183881Y-83490400D01*
X120114120Y-83681927D01*
X120080395Y-83757344D01*
X119982230Y-83942803D01*
X119866051Y-84125832D01*
X119734677Y-84303456D01*
X119590930Y-84472696D01*
X119437629Y-84630576D01*
X119277595Y-84774120D01*
X119113650Y-84900349D01*
X118948612Y-85006287D01*
X118844703Y-85061584D01*
X118743520Y-85107450D01*
X118621693Y-85156748D01*
X118483466Y-85207839D01*
X118333086Y-85259085D01*
X118332250Y-85259359D01*
X118187099Y-85304291D01*
X118046487Y-85342073D01*
X117906488Y-85373252D01*
X117763176Y-85398376D01*
X117612625Y-85417992D01*
X117450910Y-85432647D01*
X117274104Y-85442887D01*
X117078282Y-85449261D01*
X116954300Y-85451404D01*
X116845408Y-85452331D01*
X116735367Y-85452455D01*
X116629291Y-85451829D01*
X116532292Y-85450504D01*
X116449483Y-85448535D01*
X116385977Y-85445974D01*
X116376450Y-85445420D01*
X116230686Y-85434249D01*
X116082747Y-85419012D01*
X115940377Y-85400662D01*
X115811320Y-85380152D01*
X115747800Y-85368088D01*
X115628512Y-85341700D01*
X115501881Y-85310048D01*
X115372477Y-85274546D01*
X115244870Y-85236610D01*
X115123633Y-85197657D01*
X115013336Y-85159103D01*
X114918550Y-85122363D01*
X114843846Y-85088853D01*
X114839750Y-85086798D01*
X114670452Y-84989206D01*
X114502105Y-84869352D01*
X114337348Y-84730315D01*
X114178821Y-84575178D01*
X114029166Y-84407020D01*
X113891021Y-84228923D01*
X113767028Y-84043967D01*
X113659825Y-83855234D01*
X113572054Y-83665804D01*
X113532720Y-83561573D01*
X113477114Y-83375297D01*
X113431937Y-83171748D01*
X113397599Y-82956403D01*
X113374512Y-82734743D01*
X113363088Y-82512246D01*
X113363739Y-82294389D01*
X113376876Y-82086653D01*
X113402911Y-81894515D01*
X113406139Y-81876903D01*
X113423415Y-81772220D01*
X113432377Y-81680884D01*
X113433484Y-81592405D01*
X113427197Y-81496293D01*
X113424151Y-81466371D01*
X113398189Y-81275810D01*
X113360489Y-81078937D01*
X113310308Y-80872969D01*
X113246901Y-80655124D01*
X113169524Y-80422618D01*
X113079583Y-80178278D01*
X113053482Y-80110808D01*
X113029588Y-80050172D01*
X113009771Y-80001025D01*
X112995897Y-79968020D01*
X112991023Y-79957562D01*
X112982522Y-79935061D01*
X112983304Y-79925462D01*
X112997561Y-79925838D01*
X113029516Y-79932514D01*
X113072658Y-79944096D01*
X113079172Y-79946015D01*
X113125851Y-79960704D01*
X113154925Y-79973771D01*
X113173279Y-79990339D01*
X113187799Y-80015528D01*
X113195631Y-80032640D01*
X113231759Y-80116838D01*
X113273705Y-80220096D01*
X113319546Y-80337285D01*
X113367359Y-80463273D01*
X113415220Y-80592928D01*
X113461208Y-80721121D01*
X113503400Y-80842721D01*
X113536550Y-80942324D01*
X113601026Y-81146993D01*
X113656961Y-81338349D01*
X113705676Y-81522248D01*
X113748494Y-81704546D01*
X113786735Y-81891099D01*
X113821720Y-82087764D01*
X113854771Y-82300396D01*
X113874566Y-82440588D01*
X113919504Y-82769327D01*
X113969924Y-82829549D01*
X114049209Y-82916395D01*
X114145744Y-83009471D01*
X114253880Y-83104014D01*
X114367968Y-83195267D01*
X114482358Y-83278467D01*
X114573050Y-83337731D01*
X114647943Y-83380737D01*
X114739553Y-83428621D01*
X114840633Y-83477983D01*
X114943936Y-83525423D01*
X115042216Y-83567540D01*
X115128226Y-83600935D01*
X115150900Y-83608862D01*
X115348702Y-83669459D01*
X115557355Y-83720946D01*
X115779569Y-83763778D01*
X116018058Y-83798409D01*
X116275533Y-83825296D01*
X116554706Y-83844891D01*
X116560600Y-83845215D01*
X116864356Y-83856328D01*
X117149172Y-83854992D01*
X117418445Y-83840850D01*
X117675572Y-83813547D01*
X117923949Y-83772727D01*
X118166972Y-83718034D01*
X118395750Y-83652974D01*
X118620631Y-83575547D01*
X118830978Y-83488791D01*
X119025296Y-83393667D01*
X119202090Y-83291134D01*
X119359867Y-83182154D01*
X119497132Y-83067687D01*
X119612391Y-82948695D01*
X119704149Y-82826139D01*
X119719120Y-82802002D01*
X119733372Y-82776791D01*
X119744768Y-82751742D01*
X119754282Y-82722620D01*
X119762889Y-82685192D01*
X119771562Y-82635222D01*
X119781276Y-82568477D01*
X119792944Y-82481187D01*
X119821683Y-82270764D01*
X119850401Y-82080675D01*
X119880244Y-81905882D01*
X119912356Y-81741347D01*
X119947883Y-81582030D01*
X119987972Y-81422893D01*
X120033767Y-81258897D01*
X120086414Y-81085003D01*
X120147058Y-80896174D01*
X120167102Y-80835500D01*
X120201004Y-80735441D01*
X120237509Y-80631239D01*
X120275465Y-80525876D01*
X120313721Y-80422332D01*
X120351127Y-80323590D01*
X120386531Y-80232629D01*
X120418781Y-80152433D01*
X120446726Y-80085982D01*
X120469214Y-80036258D01*
X120485096Y-80006242D01*
X120489735Y-80000004D01*
X120508901Y-79987666D01*
X120544501Y-79969985D01*
X120589090Y-79950110D01*
X120635225Y-79931188D01*
X120675465Y-79916367D01*
X120702365Y-79908793D01*
X120706353Y-79908400D01*
X120707997Y-79919643D01*
G36*
X117366361Y-83180066D02*
X117368335Y-83277096D01*
X117369485Y-83365949D01*
X117369822Y-83443444D01*
X117369356Y-83506401D01*
X117368098Y-83551638D01*
X117366060Y-83575974D01*
X117364998Y-83579175D01*
X117349190Y-83583333D01*
X117312672Y-83587945D01*
X117260120Y-83592567D01*
X117196206Y-83596755D01*
X117160675Y-83598583D01*
X116967000Y-83607649D01*
X116967000Y-82807727D01*
X117064166Y-82799513D01*
X117130202Y-82795183D01*
X117203899Y-82792207D01*
X117259203Y-82791300D01*
X117357075Y-82791300D01*
X117366361Y-83180066D01*
X117366361Y-83180066D01*
G37*
X117366361Y-83180066D02*
X117368335Y-83277096D01*
X117369485Y-83365949D01*
X117369822Y-83443444D01*
X117369356Y-83506401D01*
X117368098Y-83551638D01*
X117366060Y-83575974D01*
X117364998Y-83579175D01*
X117349190Y-83583333D01*
X117312672Y-83587945D01*
X117260120Y-83592567D01*
X117196206Y-83596755D01*
X117160675Y-83598583D01*
X116967000Y-83607649D01*
X116967000Y-82807727D01*
X117064166Y-82799513D01*
X117130202Y-82795183D01*
X117203899Y-82792207D01*
X117259203Y-82791300D01*
X117357075Y-82791300D01*
X117366361Y-83180066D01*
G36*
X116751100Y-83591400D02*
X116646325Y-83589071D01*
X116578537Y-83586868D01*
X116503328Y-83583376D01*
X116439950Y-83579546D01*
X116338350Y-83572350D01*
X116334988Y-83188175D01*
X116331627Y-82804000D01*
X116751100Y-82804000D01*
X116751100Y-83591400D01*
X116751100Y-83591400D01*
G37*
X116751100Y-83591400D02*
X116646325Y-83589071D01*
X116578537Y-83586868D01*
X116503328Y-83583376D01*
X116439950Y-83579546D01*
X116338350Y-83572350D01*
X116334988Y-83188175D01*
X116331627Y-82804000D01*
X116751100Y-82804000D01*
X116751100Y-83591400D01*
G36*
X117911847Y-82789817D02*
X117913930Y-82817615D01*
X117915797Y-82866708D01*
X117917367Y-82932989D01*
X117918560Y-83012353D01*
X117919295Y-83100693D01*
X117919500Y-83178482D01*
X117919500Y-83511319D01*
X117789325Y-83533259D01*
X117729850Y-83543269D01*
X117675463Y-83552399D01*
X117633804Y-83559367D01*
X117617875Y-83562013D01*
X117576600Y-83568826D01*
X117576600Y-82770347D01*
X117740397Y-82752167D01*
X117904195Y-82733988D01*
X117911847Y-82789817D01*
X117911847Y-82789817D01*
G37*
X117911847Y-82789817D02*
X117913930Y-82817615D01*
X117915797Y-82866708D01*
X117917367Y-82932989D01*
X117918560Y-83012353D01*
X117919295Y-83100693D01*
X117919500Y-83178482D01*
X117919500Y-83511319D01*
X117789325Y-83533259D01*
X117729850Y-83543269D01*
X117675463Y-83552399D01*
X117633804Y-83559367D01*
X117617875Y-83562013D01*
X117576600Y-83568826D01*
X117576600Y-82770347D01*
X117740397Y-82752167D01*
X117904195Y-82733988D01*
X117911847Y-82789817D01*
G36*
X115815165Y-82752676D02*
X115862905Y-82757558D01*
X115918493Y-82764358D01*
X115976197Y-82772299D01*
X116030285Y-82780604D01*
X116075027Y-82788494D01*
X116104690Y-82795192D01*
X116113564Y-82798924D01*
X116115702Y-82814087D01*
X116117403Y-82851374D01*
X116118623Y-82907510D01*
X116119319Y-82979224D01*
X116119446Y-83063240D01*
X116118960Y-83156286D01*
X116118725Y-83181825D01*
X116117325Y-83295067D01*
X116115578Y-83384873D01*
X116113382Y-83453207D01*
X116110636Y-83502031D01*
X116107239Y-83533308D01*
X116103090Y-83549002D01*
X116099675Y-83551766D01*
X116079543Y-83549163D01*
X116043076Y-83543990D01*
X116008150Y-83538849D01*
X115952226Y-83530359D01*
X115888095Y-83520428D01*
X115846225Y-83513835D01*
X115760500Y-83500205D01*
X115760500Y-83128819D01*
X115760685Y-83034298D01*
X115761211Y-82948261D01*
X115762029Y-82873916D01*
X115763090Y-82814472D01*
X115764346Y-82773136D01*
X115765750Y-82753118D01*
X115766152Y-82751780D01*
X115781003Y-82750491D01*
X115815165Y-82752676D01*
X115815165Y-82752676D01*
G37*
X115815165Y-82752676D02*
X115862905Y-82757558D01*
X115918493Y-82764358D01*
X115976197Y-82772299D01*
X116030285Y-82780604D01*
X116075027Y-82788494D01*
X116104690Y-82795192D01*
X116113564Y-82798924D01*
X116115702Y-82814087D01*
X116117403Y-82851374D01*
X116118623Y-82907510D01*
X116119319Y-82979224D01*
X116119446Y-83063240D01*
X116118960Y-83156286D01*
X116118725Y-83181825D01*
X116117325Y-83295067D01*
X116115578Y-83384873D01*
X116113382Y-83453207D01*
X116110636Y-83502031D01*
X116107239Y-83533308D01*
X116103090Y-83549002D01*
X116099675Y-83551766D01*
X116079543Y-83549163D01*
X116043076Y-83543990D01*
X116008150Y-83538849D01*
X115952226Y-83530359D01*
X115888095Y-83520428D01*
X115846225Y-83513835D01*
X115760500Y-83500205D01*
X115760500Y-83128819D01*
X115760685Y-83034298D01*
X115761211Y-82948261D01*
X115762029Y-82873916D01*
X115763090Y-82814472D01*
X115764346Y-82773136D01*
X115765750Y-82753118D01*
X115766152Y-82751780D01*
X115781003Y-82750491D01*
X115815165Y-82752676D01*
G36*
X118535166Y-82598399D02*
X118536868Y-82612320D01*
X118538408Y-82648387D01*
X118539729Y-82703347D01*
X118540771Y-82773945D01*
X118541478Y-82856929D01*
X118541790Y-82949045D01*
X118541800Y-82969018D01*
X118541800Y-83333003D01*
X118443375Y-83367010D01*
X118371324Y-83391101D01*
X118301605Y-83412970D01*
X118238434Y-83431444D01*
X118186024Y-83445352D01*
X118148591Y-83453519D01*
X118130349Y-83454775D01*
X118129544Y-83454311D01*
X118127816Y-83440355D01*
X118126249Y-83404199D01*
X118124899Y-83349040D01*
X118123823Y-83278077D01*
X118123078Y-83194508D01*
X118122722Y-83101534D01*
X118122700Y-83070913D01*
X118122700Y-82694359D01*
X118208425Y-82677605D01*
X118261352Y-82665937D01*
X118326727Y-82649638D01*
X118392766Y-82631687D01*
X118411341Y-82626308D01*
X118462243Y-82612140D01*
X118503454Y-82602238D01*
X118529350Y-82597870D01*
X118535166Y-82598399D01*
X118535166Y-82598399D01*
G37*
X118535166Y-82598399D02*
X118536868Y-82612320D01*
X118538408Y-82648387D01*
X118539729Y-82703347D01*
X118540771Y-82773945D01*
X118541478Y-82856929D01*
X118541790Y-82949045D01*
X118541800Y-82969018D01*
X118541800Y-83333003D01*
X118443375Y-83367010D01*
X118371324Y-83391101D01*
X118301605Y-83412970D01*
X118238434Y-83431444D01*
X118186024Y-83445352D01*
X118148591Y-83453519D01*
X118130349Y-83454775D01*
X118129544Y-83454311D01*
X118127816Y-83440355D01*
X118126249Y-83404199D01*
X118124899Y-83349040D01*
X118123823Y-83278077D01*
X118123078Y-83194508D01*
X118122722Y-83101534D01*
X118122700Y-83070913D01*
X118122700Y-82694359D01*
X118208425Y-82677605D01*
X118261352Y-82665937D01*
X118326727Y-82649638D01*
X118392766Y-82631687D01*
X118411341Y-82626308D01*
X118462243Y-82612140D01*
X118503454Y-82602238D01*
X118529350Y-82597870D01*
X118535166Y-82598399D01*
G36*
X115199739Y-82606458D02*
X115233444Y-82617188D01*
X115284531Y-82632108D01*
X115345745Y-82649226D01*
X115409832Y-82666554D01*
X115469537Y-82682101D01*
X115517604Y-82693877D01*
X115522566Y-82695015D01*
X115557682Y-82702979D01*
X115554316Y-83073995D01*
X115553251Y-83183417D01*
X115552019Y-83269972D01*
X115550252Y-83336189D01*
X115547579Y-83384601D01*
X115543633Y-83417738D01*
X115538044Y-83438132D01*
X115530444Y-83448314D01*
X115520464Y-83450814D01*
X115507734Y-83448165D01*
X115500150Y-83445676D01*
X115483940Y-83440500D01*
X115448283Y-83429294D01*
X115397987Y-83413563D01*
X115337861Y-83394812D01*
X115319175Y-83388994D01*
X115150900Y-83336624D01*
X115150900Y-82589226D01*
X115199739Y-82606458D01*
X115199739Y-82606458D01*
G37*
X115199739Y-82606458D02*
X115233444Y-82617188D01*
X115284531Y-82632108D01*
X115345745Y-82649226D01*
X115409832Y-82666554D01*
X115469537Y-82682101D01*
X115517604Y-82693877D01*
X115522566Y-82695015D01*
X115557682Y-82702979D01*
X115554316Y-83073995D01*
X115553251Y-83183417D01*
X115552019Y-83269972D01*
X115550252Y-83336189D01*
X115547579Y-83384601D01*
X115543633Y-83417738D01*
X115538044Y-83438132D01*
X115530444Y-83448314D01*
X115520464Y-83450814D01*
X115507734Y-83448165D01*
X115500150Y-83445676D01*
X115483940Y-83440500D01*
X115448283Y-83429294D01*
X115397987Y-83413563D01*
X115337861Y-83394812D01*
X115319175Y-83388994D01*
X115150900Y-83336624D01*
X115150900Y-82589226D01*
X115199739Y-82606458D01*
G36*
X114611860Y-82356702D02*
X114646813Y-82372701D01*
X114695658Y-82395626D01*
X114753919Y-82423387D01*
X114780925Y-82436375D01*
X114950700Y-82518250D01*
X114942850Y-82688533D01*
X114939803Y-82769481D01*
X114937308Y-82864072D01*
X114935621Y-82960550D01*
X114935000Y-83047160D01*
X114935000Y-83047308D01*
X114934395Y-83113226D01*
X114932730Y-83169084D01*
X114930228Y-83210470D01*
X114927111Y-83232972D01*
X114925475Y-83235770D01*
X114910969Y-83229901D01*
X114879708Y-83214137D01*
X114836974Y-83191208D01*
X114808000Y-83175131D01*
X114752567Y-83143168D01*
X114697692Y-83110119D01*
X114652510Y-83081530D01*
X114639725Y-83072950D01*
X114579400Y-83031379D01*
X114579400Y-82688158D01*
X114579642Y-82581777D01*
X114580438Y-82498532D01*
X114581896Y-82436165D01*
X114584120Y-82392416D01*
X114587218Y-82365026D01*
X114591293Y-82351735D01*
X114595275Y-82349718D01*
X114611860Y-82356702D01*
X114611860Y-82356702D01*
G37*
X114611860Y-82356702D02*
X114646813Y-82372701D01*
X114695658Y-82395626D01*
X114753919Y-82423387D01*
X114780925Y-82436375D01*
X114950700Y-82518250D01*
X114942850Y-82688533D01*
X114939803Y-82769481D01*
X114937308Y-82864072D01*
X114935621Y-82960550D01*
X114935000Y-83047160D01*
X114935000Y-83047308D01*
X114934395Y-83113226D01*
X114932730Y-83169084D01*
X114930228Y-83210470D01*
X114927111Y-83232972D01*
X114925475Y-83235770D01*
X114910969Y-83229901D01*
X114879708Y-83214137D01*
X114836974Y-83191208D01*
X114808000Y-83175131D01*
X114752567Y-83143168D01*
X114697692Y-83110119D01*
X114652510Y-83081530D01*
X114639725Y-83072950D01*
X114579400Y-83031379D01*
X114579400Y-82688158D01*
X114579642Y-82581777D01*
X114580438Y-82498532D01*
X114581896Y-82436165D01*
X114584120Y-82392416D01*
X114587218Y-82365026D01*
X114591293Y-82351735D01*
X114595275Y-82349718D01*
X114611860Y-82356702D01*
G36*
X119106239Y-82347551D02*
X119108467Y-82380719D01*
X119110373Y-82432966D01*
X119111869Y-82501132D01*
X119112871Y-82582057D01*
X119113292Y-82672581D01*
X119113300Y-82686954D01*
X119113300Y-83041924D01*
X119062602Y-83075474D01*
X119026215Y-83098082D01*
X118979035Y-83125346D01*
X118926259Y-83154514D01*
X118873082Y-83182835D01*
X118824702Y-83207558D01*
X118786313Y-83225931D01*
X118763113Y-83235203D01*
X118759818Y-83235800D01*
X118755173Y-83228536D01*
X118751500Y-83205545D01*
X118748724Y-83165025D01*
X118746771Y-83105176D01*
X118745568Y-83024198D01*
X118745039Y-82920288D01*
X118745000Y-82875962D01*
X118745000Y-82516125D01*
X118919625Y-82428694D01*
X118980627Y-82398159D01*
X119033611Y-82371653D01*
X119074413Y-82351258D01*
X119098869Y-82339055D01*
X119103775Y-82336623D01*
X119106239Y-82347551D01*
X119106239Y-82347551D01*
G37*
X119106239Y-82347551D02*
X119108467Y-82380719D01*
X119110373Y-82432966D01*
X119111869Y-82501132D01*
X119112871Y-82582057D01*
X119113292Y-82672581D01*
X119113300Y-82686954D01*
X119113300Y-83041924D01*
X119062602Y-83075474D01*
X119026215Y-83098082D01*
X118979035Y-83125346D01*
X118926259Y-83154514D01*
X118873082Y-83182835D01*
X118824702Y-83207558D01*
X118786313Y-83225931D01*
X118763113Y-83235203D01*
X118759818Y-83235800D01*
X118755173Y-83228536D01*
X118751500Y-83205545D01*
X118748724Y-83165025D01*
X118746771Y-83105176D01*
X118745568Y-83024198D01*
X118745039Y-82920288D01*
X118745000Y-82875962D01*
X118745000Y-82516125D01*
X118919625Y-82428694D01*
X118980627Y-82398159D01*
X119033611Y-82371653D01*
X119074413Y-82351258D01*
X119098869Y-82339055D01*
X119103775Y-82336623D01*
X119106239Y-82347551D01*
G36*
X116751100Y-82600800D02*
X116332000Y-82600800D01*
X116332000Y-81711800D01*
X116751100Y-81711800D01*
X116751100Y-82600800D01*
X116751100Y-82600800D01*
G37*
X116751100Y-82600800D02*
X116332000Y-82600800D01*
X116332000Y-81711800D01*
X116751100Y-81711800D01*
X116751100Y-82600800D01*
G36*
X117360700Y-82571947D02*
X117301777Y-82580023D01*
X117263816Y-82583440D01*
X117209007Y-82586141D01*
X117145903Y-82587775D01*
X117104927Y-82588100D01*
X116967000Y-82588100D01*
X116967000Y-81711800D01*
X117085787Y-81711800D01*
X117149991Y-81710859D01*
X117215459Y-81708359D01*
X117270518Y-81704784D01*
X117282637Y-81703640D01*
X117360700Y-81695481D01*
X117360700Y-82571947D01*
X117360700Y-82571947D01*
G37*
X117360700Y-82571947D02*
X117301777Y-82580023D01*
X117263816Y-82583440D01*
X117209007Y-82586141D01*
X117145903Y-82587775D01*
X117104927Y-82588100D01*
X116967000Y-82588100D01*
X116967000Y-81711800D01*
X117085787Y-81711800D01*
X117149991Y-81710859D01*
X117215459Y-81708359D01*
X117270518Y-81704784D01*
X117282637Y-81703640D01*
X117360700Y-81695481D01*
X117360700Y-82571947D01*
G36*
X115826492Y-81688734D02*
X115876597Y-81690258D01*
X115937766Y-81692913D01*
X115955998Y-81693831D01*
X116128800Y-81702794D01*
X116128800Y-82575400D01*
X116074825Y-82574035D01*
X116037619Y-82571545D01*
X115984601Y-82566067D01*
X115925043Y-82558605D01*
X115901578Y-82555305D01*
X115849528Y-82547286D01*
X115807808Y-82540028D01*
X115782213Y-82534582D01*
X115777083Y-82532716D01*
X115775814Y-82519235D01*
X115774783Y-82483996D01*
X115773982Y-82430642D01*
X115773405Y-82362812D01*
X115773046Y-82284149D01*
X115772899Y-82198294D01*
X115772957Y-82108889D01*
X115773215Y-82019574D01*
X115773666Y-81933991D01*
X115774303Y-81855781D01*
X115775121Y-81788586D01*
X115776113Y-81736046D01*
X115777274Y-81701805D01*
X115778526Y-81689540D01*
X115792213Y-81688456D01*
X115826492Y-81688734D01*
X115826492Y-81688734D01*
G37*
X115826492Y-81688734D02*
X115876597Y-81690258D01*
X115937766Y-81692913D01*
X115955998Y-81693831D01*
X116128800Y-81702794D01*
X116128800Y-82575400D01*
X116074825Y-82574035D01*
X116037619Y-82571545D01*
X115984601Y-82566067D01*
X115925043Y-82558605D01*
X115901578Y-82555305D01*
X115849528Y-82547286D01*
X115807808Y-82540028D01*
X115782213Y-82534582D01*
X115777083Y-82532716D01*
X115775814Y-82519235D01*
X115774783Y-82483996D01*
X115773982Y-82430642D01*
X115773405Y-82362812D01*
X115773046Y-82284149D01*
X115772899Y-82198294D01*
X115772957Y-82108889D01*
X115773215Y-82019574D01*
X115773666Y-81933991D01*
X115774303Y-81855781D01*
X115775121Y-81788586D01*
X115776113Y-81736046D01*
X115777274Y-81701805D01*
X115778526Y-81689540D01*
X115792213Y-81688456D01*
X115826492Y-81688734D01*
G36*
X117906800Y-82098132D02*
X117906709Y-82199337D01*
X117906450Y-82291968D01*
X117906047Y-82373091D01*
X117905520Y-82439770D01*
X117904891Y-82489069D01*
X117904182Y-82518055D01*
X117903625Y-82524701D01*
X117890554Y-82526218D01*
X117857275Y-82530275D01*
X117808784Y-82536260D01*
X117750076Y-82543558D01*
X117748532Y-82543751D01*
X117689040Y-82551091D01*
X117639054Y-82557107D01*
X117603786Y-82561182D01*
X117588452Y-82562699D01*
X117588416Y-82562700D01*
X117582939Y-82551179D01*
X117576836Y-82521165D01*
X117572059Y-82484637D01*
X117569887Y-82451086D01*
X117567934Y-82396382D01*
X117566278Y-82324770D01*
X117565000Y-82240496D01*
X117564180Y-82147807D01*
X117563900Y-82053412D01*
X117563900Y-81700250D01*
X117605175Y-81693866D01*
X117635534Y-81690359D01*
X117683469Y-81686141D01*
X117741191Y-81681861D01*
X117776625Y-81679573D01*
X117906800Y-81671664D01*
X117906800Y-82098132D01*
X117906800Y-82098132D01*
G37*
X117906800Y-82098132D02*
X117906709Y-82199337D01*
X117906450Y-82291968D01*
X117906047Y-82373091D01*
X117905520Y-82439770D01*
X117904891Y-82489069D01*
X117904182Y-82518055D01*
X117903625Y-82524701D01*
X117890554Y-82526218D01*
X117857275Y-82530275D01*
X117808784Y-82536260D01*
X117750076Y-82543558D01*
X117748532Y-82543751D01*
X117689040Y-82551091D01*
X117639054Y-82557107D01*
X117603786Y-82561182D01*
X117588452Y-82562699D01*
X117588416Y-82562700D01*
X117582939Y-82551179D01*
X117576836Y-82521165D01*
X117572059Y-82484637D01*
X117569887Y-82451086D01*
X117567934Y-82396382D01*
X117566278Y-82324770D01*
X117565000Y-82240496D01*
X117564180Y-82147807D01*
X117563900Y-82053412D01*
X117563900Y-81700250D01*
X117605175Y-81693866D01*
X117635534Y-81690359D01*
X117683469Y-81686141D01*
X117741191Y-81681861D01*
X117776625Y-81679573D01*
X117906800Y-81671664D01*
X117906800Y-82098132D01*
G36*
X115175646Y-81611431D02*
X115211547Y-81615980D01*
X115263659Y-81622920D01*
X115327515Y-81631660D01*
X115371935Y-81637848D01*
X115573921Y-81666169D01*
X115565610Y-81970441D01*
X115563202Y-82063174D01*
X115561068Y-82154089D01*
X115559314Y-82237906D01*
X115558049Y-82309343D01*
X115557379Y-82363123D01*
X115557300Y-82380606D01*
X115556687Y-82432835D01*
X115554166Y-82464518D01*
X115548714Y-82480494D01*
X115539309Y-82485601D01*
X115535075Y-82485723D01*
X115514626Y-82481915D01*
X115475584Y-82472139D01*
X115423633Y-82457891D01*
X115366800Y-82441370D01*
X115306059Y-82422924D01*
X115251224Y-82405688D01*
X115208638Y-82391689D01*
X115185825Y-82383456D01*
X115150900Y-82369118D01*
X115150900Y-81989659D01*
X115151205Y-81894397D01*
X115152071Y-81807873D01*
X115153418Y-81733200D01*
X115155168Y-81673493D01*
X115157244Y-81631865D01*
X115159566Y-81611431D01*
X115160425Y-81609863D01*
X115175646Y-81611431D01*
X115175646Y-81611431D01*
G37*
X115175646Y-81611431D02*
X115211547Y-81615980D01*
X115263659Y-81622920D01*
X115327515Y-81631660D01*
X115371935Y-81637848D01*
X115573921Y-81666169D01*
X115565610Y-81970441D01*
X115563202Y-82063174D01*
X115561068Y-82154089D01*
X115559314Y-82237906D01*
X115558049Y-82309343D01*
X115557379Y-82363123D01*
X115557300Y-82380606D01*
X115556687Y-82432835D01*
X115554166Y-82464518D01*
X115548714Y-82480494D01*
X115539309Y-82485601D01*
X115535075Y-82485723D01*
X115514626Y-82481915D01*
X115475584Y-82472139D01*
X115423633Y-82457891D01*
X115366800Y-82441370D01*
X115306059Y-82422924D01*
X115251224Y-82405688D01*
X115208638Y-82391689D01*
X115185825Y-82383456D01*
X115150900Y-82369118D01*
X115150900Y-81989659D01*
X115151205Y-81894397D01*
X115152071Y-81807873D01*
X115153418Y-81733200D01*
X115155168Y-81673493D01*
X115157244Y-81631865D01*
X115159566Y-81611431D01*
X115160425Y-81609863D01*
X115175646Y-81611431D01*
G36*
X118525546Y-81615207D02*
X118527401Y-81651439D01*
X118528875Y-81705334D01*
X118529969Y-81773049D01*
X118530688Y-81850738D01*
X118531033Y-81934554D01*
X118531007Y-82020652D01*
X118530613Y-82105186D01*
X118529854Y-82184311D01*
X118528733Y-82254181D01*
X118527253Y-82310950D01*
X118525415Y-82350772D01*
X118523224Y-82369803D01*
X118522750Y-82370769D01*
X118505324Y-82379597D01*
X118468905Y-82392952D01*
X118419122Y-82409114D01*
X118361599Y-82426358D01*
X118301963Y-82442963D01*
X118245842Y-82457205D01*
X118224300Y-82462150D01*
X118185052Y-82471140D01*
X118154093Y-82478836D01*
X118146810Y-82480873D01*
X118136048Y-82480124D01*
X118128586Y-82467133D01*
X118123030Y-82437449D01*
X118118235Y-82389591D01*
X118115913Y-82349108D01*
X118113847Y-82288150D01*
X118112136Y-82211640D01*
X118110874Y-82124503D01*
X118110161Y-82031663D01*
X118110036Y-81973408D01*
X118110072Y-81654650D01*
X118315165Y-81625887D01*
X118384064Y-81616444D01*
X118443484Y-81608720D01*
X118489176Y-81603233D01*
X118516891Y-81600500D01*
X118523306Y-81600487D01*
X118525546Y-81615207D01*
X118525546Y-81615207D01*
G37*
X118525546Y-81615207D02*
X118527401Y-81651439D01*
X118528875Y-81705334D01*
X118529969Y-81773049D01*
X118530688Y-81850738D01*
X118531033Y-81934554D01*
X118531007Y-82020652D01*
X118530613Y-82105186D01*
X118529854Y-82184311D01*
X118528733Y-82254181D01*
X118527253Y-82310950D01*
X118525415Y-82350772D01*
X118523224Y-82369803D01*
X118522750Y-82370769D01*
X118505324Y-82379597D01*
X118468905Y-82392952D01*
X118419122Y-82409114D01*
X118361599Y-82426358D01*
X118301963Y-82442963D01*
X118245842Y-82457205D01*
X118224300Y-82462150D01*
X118185052Y-82471140D01*
X118154093Y-82478836D01*
X118146810Y-82480873D01*
X118136048Y-82480124D01*
X118128586Y-82467133D01*
X118123030Y-82437449D01*
X118118235Y-82389591D01*
X118115913Y-82349108D01*
X118113847Y-82288150D01*
X118112136Y-82211640D01*
X118110874Y-82124503D01*
X118110161Y-82031663D01*
X118110036Y-81973408D01*
X118110072Y-81654650D01*
X118315165Y-81625887D01*
X118384064Y-81616444D01*
X118443484Y-81608720D01*
X118489176Y-81603233D01*
X118516891Y-81600500D01*
X118523306Y-81600487D01*
X118525546Y-81615207D01*
G36*
X114613564Y-81461390D02*
X114646034Y-81470930D01*
X114690204Y-81484570D01*
X114703805Y-81488867D01*
X114762680Y-81507216D01*
X114823710Y-81525687D01*
X114873867Y-81540340D01*
X114874675Y-81540568D01*
X114947700Y-81561202D01*
X114947700Y-81922251D01*
X114947379Y-82015035D01*
X114946472Y-82098965D01*
X114945063Y-82170857D01*
X114943237Y-82227527D01*
X114941077Y-82265789D01*
X114938668Y-82282460D01*
X114938175Y-82282924D01*
X114923634Y-82277360D01*
X114891467Y-82262557D01*
X114846650Y-82240866D01*
X114801650Y-82218427D01*
X114745476Y-82189652D01*
X114693540Y-82162313D01*
X114652602Y-82140008D01*
X114633375Y-82128867D01*
X114592100Y-82103428D01*
X114592100Y-81780614D01*
X114592360Y-81693071D01*
X114593094Y-81614545D01*
X114594228Y-81548408D01*
X114595690Y-81498033D01*
X114597407Y-81466792D01*
X114599030Y-81457800D01*
X114613564Y-81461390D01*
X114613564Y-81461390D01*
G37*
X114613564Y-81461390D02*
X114646034Y-81470930D01*
X114690204Y-81484570D01*
X114703805Y-81488867D01*
X114762680Y-81507216D01*
X114823710Y-81525687D01*
X114873867Y-81540340D01*
X114874675Y-81540568D01*
X114947700Y-81561202D01*
X114947700Y-81922251D01*
X114947379Y-82015035D01*
X114946472Y-82098965D01*
X114945063Y-82170857D01*
X114943237Y-82227527D01*
X114941077Y-82265789D01*
X114938668Y-82282460D01*
X114938175Y-82282924D01*
X114923634Y-82277360D01*
X114891467Y-82262557D01*
X114846650Y-82240866D01*
X114801650Y-82218427D01*
X114745476Y-82189652D01*
X114693540Y-82162313D01*
X114652602Y-82140008D01*
X114633375Y-82128867D01*
X114592100Y-82103428D01*
X114592100Y-81780614D01*
X114592360Y-81693071D01*
X114593094Y-81614545D01*
X114594228Y-81548408D01*
X114595690Y-81498033D01*
X114597407Y-81466792D01*
X114599030Y-81457800D01*
X114613564Y-81461390D01*
G36*
X119096218Y-81461788D02*
X119097218Y-81496585D01*
X119098417Y-81549905D01*
X119099743Y-81618312D01*
X119101123Y-81698367D01*
X119102220Y-81768721D01*
X119106950Y-82085993D01*
X119043450Y-82127729D01*
X119010344Y-82148147D01*
X118965830Y-82173812D01*
X118915162Y-82201914D01*
X118863595Y-82229642D01*
X118816386Y-82254187D01*
X118778789Y-82272738D01*
X118756060Y-82282486D01*
X118752507Y-82283300D01*
X118750594Y-82271126D01*
X118748861Y-82236713D01*
X118747372Y-82183218D01*
X118746192Y-82113802D01*
X118745385Y-82031624D01*
X118745016Y-81939843D01*
X118745000Y-81915489D01*
X118745000Y-81547679D01*
X118798975Y-81533822D01*
X118835296Y-81523889D01*
X118887128Y-81508951D01*
X118945725Y-81491549D01*
X118973218Y-81483210D01*
X119024169Y-81467930D01*
X119064847Y-81456286D01*
X119089981Y-81449754D01*
X119095489Y-81448951D01*
X119096218Y-81461788D01*
X119096218Y-81461788D01*
G37*
X119096218Y-81461788D02*
X119097218Y-81496585D01*
X119098417Y-81549905D01*
X119099743Y-81618312D01*
X119101123Y-81698367D01*
X119102220Y-81768721D01*
X119106950Y-82085993D01*
X119043450Y-82127729D01*
X119010344Y-82148147D01*
X118965830Y-82173812D01*
X118915162Y-82201914D01*
X118863595Y-82229642D01*
X118816386Y-82254187D01*
X118778789Y-82272738D01*
X118756060Y-82282486D01*
X118752507Y-82283300D01*
X118750594Y-82271126D01*
X118748861Y-82236713D01*
X118747372Y-82183218D01*
X118746192Y-82113802D01*
X118745385Y-82031624D01*
X118745016Y-81939843D01*
X118745000Y-81915489D01*
X118745000Y-81547679D01*
X118798975Y-81533822D01*
X118835296Y-81523889D01*
X118887128Y-81508951D01*
X118945725Y-81491549D01*
X118973218Y-81483210D01*
X119024169Y-81467930D01*
X119064847Y-81456286D01*
X119089981Y-81449754D01*
X119095489Y-81448951D01*
X119096218Y-81461788D01*
G36*
X108234304Y-77295430D02*
X108292462Y-77317419D01*
X108411406Y-77378367D01*
X108526389Y-77459836D01*
X108631709Y-77557008D01*
X108721664Y-77665064D01*
X108745871Y-77700531D01*
X108769574Y-77740196D01*
X108801182Y-77797462D01*
X108837840Y-77866921D01*
X108876691Y-77943165D01*
X108914358Y-78019699D01*
X108978411Y-78148502D01*
X109037248Y-78257600D01*
X109093783Y-78351351D01*
X109150934Y-78434114D01*
X109211616Y-78510246D01*
X109278745Y-78584105D01*
X109319869Y-78625732D01*
X109366381Y-78671213D01*
X109405265Y-78707391D01*
X109441152Y-78737514D01*
X109478673Y-78764830D01*
X109522460Y-78792590D01*
X109577143Y-78824042D01*
X109647352Y-78862434D01*
X109689900Y-78885341D01*
X109759831Y-78922545D01*
X109847576Y-78968644D01*
X109948262Y-79021112D01*
X110057015Y-79077422D01*
X110168962Y-79135048D01*
X110279231Y-79191463D01*
X110334948Y-79219815D01*
X110414910Y-79260123D01*
X110509338Y-79307216D01*
X110616344Y-79360186D01*
X110734041Y-79418124D01*
X110860541Y-79480119D01*
X110993957Y-79545264D01*
X111132401Y-79612649D01*
X111273985Y-79681365D01*
X111416822Y-79750502D01*
X111559024Y-79819152D01*
X111698704Y-79886405D01*
X111833974Y-79951353D01*
X111962946Y-80013086D01*
X112083733Y-80070694D01*
X112194447Y-80123269D01*
X112293201Y-80169902D01*
X112378107Y-80209683D01*
X112447277Y-80241704D01*
X112498824Y-80265055D01*
X112530860Y-80278826D01*
X112540943Y-80282321D01*
X112553117Y-80288531D01*
X112567109Y-80305909D01*
X112583749Y-80336430D01*
X112603869Y-80382073D01*
X112628301Y-80444815D01*
X112657874Y-80526634D01*
X112693422Y-80629507D01*
X112720090Y-80708500D01*
X112788798Y-80929556D01*
X112844241Y-81142553D01*
X112884122Y-81337150D01*
X112893754Y-81399800D01*
X112901906Y-81466514D01*
X112908268Y-81532617D01*
X112912529Y-81593438D01*
X112914380Y-81644301D01*
X112913510Y-81680533D01*
X112909609Y-81697461D01*
X112908093Y-81698127D01*
X112894287Y-81692475D01*
X112860532Y-81676913D01*
X112809646Y-81652789D01*
X112744446Y-81621456D01*
X112667751Y-81584263D01*
X112582378Y-81542562D01*
X112534700Y-81519155D01*
X112321913Y-81414880D01*
X112089207Y-81301520D01*
X111839746Y-81180590D01*
X111576694Y-81053606D01*
X111303213Y-80922083D01*
X111022468Y-80787536D01*
X110737622Y-80651480D01*
X110451838Y-80515432D01*
X110168280Y-80380906D01*
X109890112Y-80249417D01*
X109620497Y-80122481D01*
X109537500Y-80083520D01*
X109382276Y-80011261D01*
X109249493Y-79950638D01*
X109139038Y-79901603D01*
X109050797Y-79864106D01*
X108984658Y-79838100D01*
X108940509Y-79823534D01*
X108934250Y-79821977D01*
X108888194Y-79813710D01*
X108830687Y-79807723D01*
X108757946Y-79803785D01*
X108666189Y-79801667D01*
X108591350Y-79801150D01*
X108499520Y-79801274D01*
X108425746Y-79802522D01*
X108362688Y-79805528D01*
X108303006Y-79810924D01*
X108239361Y-79819344D01*
X108164412Y-79831422D01*
X108089700Y-79844441D01*
X107886693Y-79874373D01*
X107700989Y-79888786D01*
X107529682Y-79887545D01*
X107369864Y-79870516D01*
X107218628Y-79837564D01*
X107099328Y-79798700D01*
X107017727Y-79764417D01*
X106959526Y-79730578D01*
X106922864Y-79694957D01*
X106905882Y-79655331D01*
X106906719Y-79609475D01*
X106914940Y-79578227D01*
X106946188Y-79504987D01*
X106993660Y-79425876D01*
X107058434Y-79339612D01*
X107141586Y-79244913D01*
X107244192Y-79140494D01*
X107367328Y-79025075D01*
X107415078Y-78982195D01*
X107521479Y-78886413D01*
X107609089Y-78804898D01*
X107679164Y-78736319D01*
X107732961Y-78679348D01*
X107771737Y-78632657D01*
X107796750Y-78594917D01*
X107809007Y-78565768D01*
X107813602Y-78538313D01*
X107818934Y-78490298D01*
X107824580Y-78426538D01*
X107830118Y-78351845D01*
X107835124Y-78271034D01*
X107835528Y-78263750D01*
X107845025Y-78109500D01*
X107855624Y-77977124D01*
X107867839Y-77863098D01*
X107882182Y-77763904D01*
X107899168Y-77676020D01*
X107919311Y-77595924D01*
X107943125Y-77520097D01*
X107944728Y-77515474D01*
X107962255Y-77467824D01*
X107979023Y-77431839D01*
X107999963Y-77399685D01*
X108030007Y-77363527D01*
X108063286Y-77327125D01*
X108097693Y-77297073D01*
X108134369Y-77281913D01*
X108178258Y-77281435D01*
X108234304Y-77295430D01*
X108234304Y-77295430D01*
G37*
X108234304Y-77295430D02*
X108292462Y-77317419D01*
X108411406Y-77378367D01*
X108526389Y-77459836D01*
X108631709Y-77557008D01*
X108721664Y-77665064D01*
X108745871Y-77700531D01*
X108769574Y-77740196D01*
X108801182Y-77797462D01*
X108837840Y-77866921D01*
X108876691Y-77943165D01*
X108914358Y-78019699D01*
X108978411Y-78148502D01*
X109037248Y-78257600D01*
X109093783Y-78351351D01*
X109150934Y-78434114D01*
X109211616Y-78510246D01*
X109278745Y-78584105D01*
X109319869Y-78625732D01*
X109366381Y-78671213D01*
X109405265Y-78707391D01*
X109441152Y-78737514D01*
X109478673Y-78764830D01*
X109522460Y-78792590D01*
X109577143Y-78824042D01*
X109647352Y-78862434D01*
X109689900Y-78885341D01*
X109759831Y-78922545D01*
X109847576Y-78968644D01*
X109948262Y-79021112D01*
X110057015Y-79077422D01*
X110168962Y-79135048D01*
X110279231Y-79191463D01*
X110334948Y-79219815D01*
X110414910Y-79260123D01*
X110509338Y-79307216D01*
X110616344Y-79360186D01*
X110734041Y-79418124D01*
X110860541Y-79480119D01*
X110993957Y-79545264D01*
X111132401Y-79612649D01*
X111273985Y-79681365D01*
X111416822Y-79750502D01*
X111559024Y-79819152D01*
X111698704Y-79886405D01*
X111833974Y-79951353D01*
X111962946Y-80013086D01*
X112083733Y-80070694D01*
X112194447Y-80123269D01*
X112293201Y-80169902D01*
X112378107Y-80209683D01*
X112447277Y-80241704D01*
X112498824Y-80265055D01*
X112530860Y-80278826D01*
X112540943Y-80282321D01*
X112553117Y-80288531D01*
X112567109Y-80305909D01*
X112583749Y-80336430D01*
X112603869Y-80382073D01*
X112628301Y-80444815D01*
X112657874Y-80526634D01*
X112693422Y-80629507D01*
X112720090Y-80708500D01*
X112788798Y-80929556D01*
X112844241Y-81142553D01*
X112884122Y-81337150D01*
X112893754Y-81399800D01*
X112901906Y-81466514D01*
X112908268Y-81532617D01*
X112912529Y-81593438D01*
X112914380Y-81644301D01*
X112913510Y-81680533D01*
X112909609Y-81697461D01*
X112908093Y-81698127D01*
X112894287Y-81692475D01*
X112860532Y-81676913D01*
X112809646Y-81652789D01*
X112744446Y-81621456D01*
X112667751Y-81584263D01*
X112582378Y-81542562D01*
X112534700Y-81519155D01*
X112321913Y-81414880D01*
X112089207Y-81301520D01*
X111839746Y-81180590D01*
X111576694Y-81053606D01*
X111303213Y-80922083D01*
X111022468Y-80787536D01*
X110737622Y-80651480D01*
X110451838Y-80515432D01*
X110168280Y-80380906D01*
X109890112Y-80249417D01*
X109620497Y-80122481D01*
X109537500Y-80083520D01*
X109382276Y-80011261D01*
X109249493Y-79950638D01*
X109139038Y-79901603D01*
X109050797Y-79864106D01*
X108984658Y-79838100D01*
X108940509Y-79823534D01*
X108934250Y-79821977D01*
X108888194Y-79813710D01*
X108830687Y-79807723D01*
X108757946Y-79803785D01*
X108666189Y-79801667D01*
X108591350Y-79801150D01*
X108499520Y-79801274D01*
X108425746Y-79802522D01*
X108362688Y-79805528D01*
X108303006Y-79810924D01*
X108239361Y-79819344D01*
X108164412Y-79831422D01*
X108089700Y-79844441D01*
X107886693Y-79874373D01*
X107700989Y-79888786D01*
X107529682Y-79887545D01*
X107369864Y-79870516D01*
X107218628Y-79837564D01*
X107099328Y-79798700D01*
X107017727Y-79764417D01*
X106959526Y-79730578D01*
X106922864Y-79694957D01*
X106905882Y-79655331D01*
X106906719Y-79609475D01*
X106914940Y-79578227D01*
X106946188Y-79504987D01*
X106993660Y-79425876D01*
X107058434Y-79339612D01*
X107141586Y-79244913D01*
X107244192Y-79140494D01*
X107367328Y-79025075D01*
X107415078Y-78982195D01*
X107521479Y-78886413D01*
X107609089Y-78804898D01*
X107679164Y-78736319D01*
X107732961Y-78679348D01*
X107771737Y-78632657D01*
X107796750Y-78594917D01*
X107809007Y-78565768D01*
X107813602Y-78538313D01*
X107818934Y-78490298D01*
X107824580Y-78426538D01*
X107830118Y-78351845D01*
X107835124Y-78271034D01*
X107835528Y-78263750D01*
X107845025Y-78109500D01*
X107855624Y-77977124D01*
X107867839Y-77863098D01*
X107882182Y-77763904D01*
X107899168Y-77676020D01*
X107919311Y-77595924D01*
X107943125Y-77520097D01*
X107944728Y-77515474D01*
X107962255Y-77467824D01*
X107979023Y-77431839D01*
X107999963Y-77399685D01*
X108030007Y-77363527D01*
X108063286Y-77327125D01*
X108097693Y-77297073D01*
X108134369Y-77281913D01*
X108178258Y-77281435D01*
X108234304Y-77295430D01*
G36*
X125548116Y-77226000D02*
X125550660Y-77226738D01*
X125587246Y-77241641D01*
X125617266Y-77264519D01*
X125643440Y-77299281D01*
X125668492Y-77349833D01*
X125695145Y-77420081D01*
X125704521Y-77447553D01*
X125758262Y-77624131D01*
X125798390Y-77795070D01*
X125826192Y-77968083D01*
X125842956Y-78150878D01*
X125849399Y-78314928D01*
X125851129Y-78392709D01*
X125853252Y-78449770D01*
X125856423Y-78490790D01*
X125861298Y-78520450D01*
X125868533Y-78543426D01*
X125878783Y-78564400D01*
X125886137Y-78577103D01*
X125905715Y-78602912D01*
X125940675Y-78641918D01*
X125987439Y-78690414D01*
X126042430Y-78744694D01*
X126102070Y-78801054D01*
X126104718Y-78803500D01*
X126186441Y-78880678D01*
X126269764Y-78962670D01*
X126352788Y-79047320D01*
X126433615Y-79132472D01*
X126510346Y-79215968D01*
X126581082Y-79295653D01*
X126643925Y-79369370D01*
X126696976Y-79434962D01*
X126738338Y-79490274D01*
X126766110Y-79533148D01*
X126778395Y-79561429D01*
X126778408Y-79568684D01*
X126772150Y-79592420D01*
X126765788Y-79619795D01*
X126752851Y-79649445D01*
X126728369Y-79686193D01*
X126711558Y-79706506D01*
X126660359Y-79753225D01*
X126597177Y-79791945D01*
X126519398Y-79823521D01*
X126424407Y-79848808D01*
X126309588Y-79868662D01*
X126172328Y-79883939D01*
X126168150Y-79884308D01*
X126059285Y-79892924D01*
X125969052Y-79897357D01*
X125890957Y-79897166D01*
X125818509Y-79891913D01*
X125745216Y-79881159D01*
X125664585Y-79864464D01*
X125583331Y-79844743D01*
X125415030Y-79807277D01*
X125262190Y-79784930D01*
X125119695Y-79777927D01*
X124982429Y-79786497D01*
X124845277Y-79810866D01*
X124703122Y-79851262D01*
X124599983Y-79888389D01*
X124576524Y-79898432D01*
X124531413Y-79918727D01*
X124465959Y-79948663D01*
X124381470Y-79987629D01*
X124279255Y-80035013D01*
X124160621Y-80090204D01*
X124026877Y-80152592D01*
X123879332Y-80221563D01*
X123719292Y-80296508D01*
X123548068Y-80376814D01*
X123366966Y-80461871D01*
X123177295Y-80551067D01*
X122980364Y-80643791D01*
X122777480Y-80739431D01*
X122644979Y-80801952D01*
X122440717Y-80898336D01*
X122242634Y-80991734D01*
X122051951Y-81081572D01*
X121869893Y-81167278D01*
X121697682Y-81248277D01*
X121536541Y-81323997D01*
X121387693Y-81393865D01*
X121252361Y-81457306D01*
X121131769Y-81513747D01*
X121027138Y-81562614D01*
X120939692Y-81603336D01*
X120870655Y-81635337D01*
X120821248Y-81658045D01*
X120792696Y-81670885D01*
X120785731Y-81673700D01*
X120780083Y-81661587D01*
X120778484Y-81626981D01*
X120781041Y-81572482D01*
X120781397Y-81567738D01*
X120795377Y-81441343D01*
X120818626Y-81298874D01*
X120849859Y-81147361D01*
X120883015Y-81011795D01*
X120903905Y-80936924D01*
X120930320Y-80849064D01*
X120960443Y-80753660D01*
X120992459Y-80656155D01*
X121024550Y-80561993D01*
X121054900Y-80476617D01*
X121081692Y-80405472D01*
X121100756Y-80359250D01*
X121128875Y-80295750D01*
X122643453Y-79552800D01*
X122864189Y-79444543D01*
X123063375Y-79346850D01*
X123242238Y-79259042D01*
X123402004Y-79180440D01*
X123543901Y-79110365D01*
X123669156Y-79048138D01*
X123778994Y-78993081D01*
X123874643Y-78944515D01*
X123957330Y-78901762D01*
X124028281Y-78864141D01*
X124088724Y-78830976D01*
X124139884Y-78801586D01*
X124182989Y-78775293D01*
X124219265Y-78751420D01*
X124249940Y-78729285D01*
X124276240Y-78708212D01*
X124299391Y-78687521D01*
X124320621Y-78666534D01*
X124341157Y-78644571D01*
X124362224Y-78620954D01*
X124385051Y-78595005D01*
X124395082Y-78583670D01*
X124458885Y-78508178D01*
X124517101Y-78430751D01*
X124571935Y-78347605D01*
X124625592Y-78254954D01*
X124680276Y-78149015D01*
X124738191Y-78026002D01*
X124795316Y-77896600D01*
X124843613Y-77790524D01*
X124889915Y-77703347D01*
X124938294Y-77629302D01*
X124992820Y-77562624D01*
X125057564Y-77497545D01*
X125109984Y-77450851D01*
X125211321Y-77367517D01*
X125299102Y-77303661D01*
X125375000Y-77258432D01*
X125440686Y-77230979D01*
X125497834Y-77220452D01*
X125548116Y-77226000D01*
X125548116Y-77226000D01*
G37*
X125548116Y-77226000D02*
X125550660Y-77226738D01*
X125587246Y-77241641D01*
X125617266Y-77264519D01*
X125643440Y-77299281D01*
X125668492Y-77349833D01*
X125695145Y-77420081D01*
X125704521Y-77447553D01*
X125758262Y-77624131D01*
X125798390Y-77795070D01*
X125826192Y-77968083D01*
X125842956Y-78150878D01*
X125849399Y-78314928D01*
X125851129Y-78392709D01*
X125853252Y-78449770D01*
X125856423Y-78490790D01*
X125861298Y-78520450D01*
X125868533Y-78543426D01*
X125878783Y-78564400D01*
X125886137Y-78577103D01*
X125905715Y-78602912D01*
X125940675Y-78641918D01*
X125987439Y-78690414D01*
X126042430Y-78744694D01*
X126102070Y-78801054D01*
X126104718Y-78803500D01*
X126186441Y-78880678D01*
X126269764Y-78962670D01*
X126352788Y-79047320D01*
X126433615Y-79132472D01*
X126510346Y-79215968D01*
X126581082Y-79295653D01*
X126643925Y-79369370D01*
X126696976Y-79434962D01*
X126738338Y-79490274D01*
X126766110Y-79533148D01*
X126778395Y-79561429D01*
X126778408Y-79568684D01*
X126772150Y-79592420D01*
X126765788Y-79619795D01*
X126752851Y-79649445D01*
X126728369Y-79686193D01*
X126711558Y-79706506D01*
X126660359Y-79753225D01*
X126597177Y-79791945D01*
X126519398Y-79823521D01*
X126424407Y-79848808D01*
X126309588Y-79868662D01*
X126172328Y-79883939D01*
X126168150Y-79884308D01*
X126059285Y-79892924D01*
X125969052Y-79897357D01*
X125890957Y-79897166D01*
X125818509Y-79891913D01*
X125745216Y-79881159D01*
X125664585Y-79864464D01*
X125583331Y-79844743D01*
X125415030Y-79807277D01*
X125262190Y-79784930D01*
X125119695Y-79777927D01*
X124982429Y-79786497D01*
X124845277Y-79810866D01*
X124703122Y-79851262D01*
X124599983Y-79888389D01*
X124576524Y-79898432D01*
X124531413Y-79918727D01*
X124465959Y-79948663D01*
X124381470Y-79987629D01*
X124279255Y-80035013D01*
X124160621Y-80090204D01*
X124026877Y-80152592D01*
X123879332Y-80221563D01*
X123719292Y-80296508D01*
X123548068Y-80376814D01*
X123366966Y-80461871D01*
X123177295Y-80551067D01*
X122980364Y-80643791D01*
X122777480Y-80739431D01*
X122644979Y-80801952D01*
X122440717Y-80898336D01*
X122242634Y-80991734D01*
X122051951Y-81081572D01*
X121869893Y-81167278D01*
X121697682Y-81248277D01*
X121536541Y-81323997D01*
X121387693Y-81393865D01*
X121252361Y-81457306D01*
X121131769Y-81513747D01*
X121027138Y-81562614D01*
X120939692Y-81603336D01*
X120870655Y-81635337D01*
X120821248Y-81658045D01*
X120792696Y-81670885D01*
X120785731Y-81673700D01*
X120780083Y-81661587D01*
X120778484Y-81626981D01*
X120781041Y-81572482D01*
X120781397Y-81567738D01*
X120795377Y-81441343D01*
X120818626Y-81298874D01*
X120849859Y-81147361D01*
X120883015Y-81011795D01*
X120903905Y-80936924D01*
X120930320Y-80849064D01*
X120960443Y-80753660D01*
X120992459Y-80656155D01*
X121024550Y-80561993D01*
X121054900Y-80476617D01*
X121081692Y-80405472D01*
X121100756Y-80359250D01*
X121128875Y-80295750D01*
X122643453Y-79552800D01*
X122864189Y-79444543D01*
X123063375Y-79346850D01*
X123242238Y-79259042D01*
X123402004Y-79180440D01*
X123543901Y-79110365D01*
X123669156Y-79048138D01*
X123778994Y-78993081D01*
X123874643Y-78944515D01*
X123957330Y-78901762D01*
X124028281Y-78864141D01*
X124088724Y-78830976D01*
X124139884Y-78801586D01*
X124182989Y-78775293D01*
X124219265Y-78751420D01*
X124249940Y-78729285D01*
X124276240Y-78708212D01*
X124299391Y-78687521D01*
X124320621Y-78666534D01*
X124341157Y-78644571D01*
X124362224Y-78620954D01*
X124385051Y-78595005D01*
X124395082Y-78583670D01*
X124458885Y-78508178D01*
X124517101Y-78430751D01*
X124571935Y-78347605D01*
X124625592Y-78254954D01*
X124680276Y-78149015D01*
X124738191Y-78026002D01*
X124795316Y-77896600D01*
X124843613Y-77790524D01*
X124889915Y-77703347D01*
X124938294Y-77629302D01*
X124992820Y-77562624D01*
X125057564Y-77497545D01*
X125109984Y-77450851D01*
X125211321Y-77367517D01*
X125299102Y-77303661D01*
X125375000Y-77258432D01*
X125440686Y-77230979D01*
X125497834Y-77220452D01*
X125548116Y-77226000D01*
G36*
X117272817Y-67911933D02*
X117515106Y-67920953D01*
X117747431Y-67936296D01*
X117974777Y-67958439D01*
X118202132Y-67987859D01*
X118434482Y-68025032D01*
X118676812Y-68070435D01*
X118903750Y-68117896D01*
X119188897Y-68183404D01*
X119465250Y-68253566D01*
X119730991Y-68327741D01*
X119984302Y-68405283D01*
X120223368Y-68485551D01*
X120446371Y-68567901D01*
X120651495Y-68651690D01*
X120836922Y-68736275D01*
X121000836Y-68821012D01*
X121141420Y-68905258D01*
X121157050Y-68915581D01*
X121286408Y-69007453D01*
X121425536Y-69116027D01*
X121569775Y-69237101D01*
X121714469Y-69366471D01*
X121854959Y-69499936D01*
X121986587Y-69633292D01*
X122104696Y-69762337D01*
X122136878Y-69799678D01*
X122354152Y-70074696D01*
X122548344Y-70360292D01*
X122719463Y-70656493D01*
X122867523Y-70963328D01*
X122992533Y-71280823D01*
X123094506Y-71609004D01*
X123173452Y-71947900D01*
X123229383Y-72297538D01*
X123247078Y-72458714D01*
X123254864Y-72562436D01*
X123260568Y-72683251D01*
X123264188Y-72815455D01*
X123265722Y-72953340D01*
X123265169Y-73091200D01*
X123262528Y-73223328D01*
X123257796Y-73344017D01*
X123250971Y-73447562D01*
X123247381Y-73485510D01*
X123200312Y-73813768D01*
X123129808Y-74134627D01*
X123036370Y-74446850D01*
X122920494Y-74749204D01*
X122782678Y-75040455D01*
X122623423Y-75319367D01*
X122443225Y-75584708D01*
X122351782Y-75703947D01*
X122312984Y-75751716D01*
X122279903Y-75790689D01*
X122255625Y-75817360D01*
X122243237Y-75828223D01*
X122242444Y-75828177D01*
X122235638Y-75809581D01*
X122228378Y-75769071D01*
X122220959Y-75710123D01*
X122213677Y-75636212D01*
X122206825Y-75550814D01*
X122200699Y-75457404D01*
X122195594Y-75359457D01*
X122191804Y-75260449D01*
X122190631Y-75217508D01*
X122188019Y-75053438D01*
X122189014Y-74909701D01*
X122194358Y-74781389D01*
X122204796Y-74663598D01*
X122221070Y-74551421D01*
X122243923Y-74439952D01*
X122274100Y-74324285D01*
X122312344Y-74199515D01*
X122359399Y-74060734D01*
X122370842Y-74028300D01*
X122418556Y-73892131D01*
X122458434Y-73773356D01*
X122491353Y-73667477D01*
X122518191Y-73569997D01*
X122539827Y-73476419D01*
X122557138Y-73382246D01*
X122571004Y-73282980D01*
X122582302Y-73174125D01*
X122591911Y-73051182D01*
X122600708Y-72909656D01*
X122605204Y-72828150D01*
X122610641Y-72654577D01*
X122606775Y-72501286D01*
X122593079Y-72364725D01*
X122569027Y-72241338D01*
X122534092Y-72127573D01*
X122487749Y-72019877D01*
X122484519Y-72013381D01*
X122454685Y-71959639D01*
X122418950Y-71904107D01*
X122380622Y-71850967D01*
X122343011Y-71804398D01*
X122309426Y-71768579D01*
X122283176Y-71747692D01*
X122271359Y-71744129D01*
X122258259Y-71753435D01*
X122230608Y-71778253D01*
X122191397Y-71815723D01*
X122143615Y-71862985D01*
X122090250Y-71917178D01*
X122086927Y-71920597D01*
X121917304Y-72095236D01*
X121968529Y-72160041D01*
X122007084Y-72215851D01*
X122038318Y-72277779D01*
X122062458Y-72348082D01*
X122079736Y-72429016D01*
X122090378Y-72522840D01*
X122094615Y-72631810D01*
X122092675Y-72758182D01*
X122084787Y-72904214D01*
X122071181Y-73072164D01*
X122066314Y-73124081D01*
X122055813Y-73219514D01*
X122042869Y-73307444D01*
X122026229Y-73392962D01*
X122004638Y-73481161D01*
X121976845Y-73577130D01*
X121941595Y-73685961D01*
X121897635Y-73812746D01*
X121894851Y-73820590D01*
X121846032Y-73960039D01*
X121805782Y-74080426D01*
X121773057Y-74186197D01*
X121746809Y-74281800D01*
X121725995Y-74371683D01*
X121709568Y-74460291D01*
X121696483Y-74552074D01*
X121685694Y-74651477D01*
X121677590Y-74744764D01*
X121671626Y-74849873D01*
X121668597Y-74973529D01*
X121668363Y-75109065D01*
X121670784Y-75249815D01*
X121675720Y-75389112D01*
X121683031Y-75520290D01*
X121692578Y-75636681D01*
X121697191Y-75679300D01*
X121716251Y-75825054D01*
X121741436Y-75992184D01*
X121772220Y-76177552D01*
X121808077Y-76378019D01*
X121848481Y-76590447D01*
X121857789Y-76637772D01*
X121886080Y-76781005D01*
X121909823Y-76902032D01*
X121929453Y-77003559D01*
X121945399Y-77088286D01*
X121958096Y-77158917D01*
X121967974Y-77218154D01*
X121975467Y-77268700D01*
X121981006Y-77313259D01*
X121985024Y-77354532D01*
X121987952Y-77395223D01*
X121990223Y-77438034D01*
X121991888Y-77476350D01*
X121992430Y-77701957D01*
X121975897Y-77924692D01*
X121943003Y-78140665D01*
X121894461Y-78345985D01*
X121830985Y-78536760D01*
X121772940Y-78670150D01*
X121731508Y-78748837D01*
X121686685Y-78819849D01*
X121636461Y-78884476D01*
X121578824Y-78944007D01*
X121511763Y-78999731D01*
X121433266Y-79052937D01*
X121341323Y-79104913D01*
X121233921Y-79156949D01*
X121109049Y-79210335D01*
X120964696Y-79266358D01*
X120798851Y-79326309D01*
X120690404Y-79363942D01*
X120544836Y-79415241D01*
X120418916Y-79462918D01*
X120307581Y-79509218D01*
X120205767Y-79556382D01*
X120108408Y-79606655D01*
X120010440Y-79662277D01*
X119992053Y-79673209D01*
X119858616Y-79755496D01*
X119744305Y-79831690D01*
X119644650Y-79905104D01*
X119555185Y-79979051D01*
X119471441Y-80056846D01*
X119461367Y-80066792D01*
X119327831Y-80214578D01*
X119218012Y-80369637D01*
X119131178Y-80533620D01*
X119066598Y-80708183D01*
X119023541Y-80894979D01*
X119001273Y-81095660D01*
X119000586Y-81108116D01*
X118992650Y-81260083D01*
X118878350Y-81295512D01*
X118687881Y-81347223D01*
X118474211Y-81391433D01*
X118236996Y-81428204D01*
X117975893Y-81457593D01*
X117898266Y-81464524D01*
X117747512Y-81475504D01*
X117576377Y-81484907D01*
X117389836Y-81492649D01*
X117192864Y-81498647D01*
X116990437Y-81502817D01*
X116787530Y-81505077D01*
X116589118Y-81505343D01*
X116400177Y-81503533D01*
X116225680Y-81499562D01*
X116097050Y-81494645D01*
X115844883Y-81479742D01*
X115614321Y-81459498D01*
X115402044Y-81433459D01*
X115204731Y-81401168D01*
X115019061Y-81362170D01*
X114887375Y-81328772D01*
X114744500Y-81289807D01*
X114744500Y-81220903D01*
X114732023Y-81019384D01*
X114694837Y-80822851D01*
X114633305Y-80632235D01*
X114547792Y-80448467D01*
X114438663Y-80272477D01*
X114308993Y-80108267D01*
X114240801Y-80038734D01*
X114154076Y-79962481D01*
X114053605Y-79882849D01*
X113944178Y-79803179D01*
X113830584Y-79726814D01*
X113717609Y-79657095D01*
X113610043Y-79597364D01*
X113512675Y-79550962D01*
X113506919Y-79548532D01*
X113460838Y-79530660D01*
X113411426Y-79512993D01*
X115620800Y-79512993D01*
X115625468Y-79637354D01*
X115638708Y-79765603D01*
X115659366Y-79891525D01*
X115686291Y-80008906D01*
X115718333Y-80111531D01*
X115742473Y-80169750D01*
X115777755Y-80231721D01*
X115821626Y-80290177D01*
X115868530Y-80338699D01*
X115912912Y-80370868D01*
X115919250Y-80373997D01*
X115974558Y-80386059D01*
X116042507Y-80378907D01*
X116119733Y-80353054D01*
X116149809Y-80338939D01*
X116213112Y-80300593D01*
X116287265Y-80244868D01*
X116368443Y-80175118D01*
X116452824Y-80094697D01*
X116536584Y-80006960D01*
X116566950Y-79972975D01*
X116609671Y-79923830D01*
X116646608Y-79880551D01*
X116674346Y-79847197D01*
X116689473Y-79827823D01*
X116690849Y-79825702D01*
X116692702Y-79810041D01*
X116694359Y-79771374D01*
X116695824Y-79711855D01*
X116697098Y-79633642D01*
X116698184Y-79538888D01*
X116699085Y-79429751D01*
X116699804Y-79308385D01*
X116700344Y-79176946D01*
X116700707Y-79037590D01*
X116700896Y-78892472D01*
X116700913Y-78743748D01*
X116700793Y-78624093D01*
X116992062Y-78624093D01*
X116992063Y-78650353D01*
X116992252Y-79822562D01*
X117080047Y-79925974D01*
X117136107Y-79989263D01*
X117200037Y-80056952D01*
X117267393Y-80124728D01*
X117333731Y-80188278D01*
X117394606Y-80243289D01*
X117445573Y-80285449D01*
X117465615Y-80300130D01*
X117522999Y-80335253D01*
X117582683Y-80364648D01*
X117638597Y-80385925D01*
X117684668Y-80396697D01*
X117709950Y-80396250D01*
X117730985Y-80391381D01*
X117757895Y-80385388D01*
X117809060Y-80362202D01*
X117860266Y-80316827D01*
X117909249Y-80252367D01*
X117953743Y-80171928D01*
X117991481Y-80078615D01*
X117999344Y-80054450D01*
X118021505Y-79978338D01*
X118038263Y-79907844D01*
X118050273Y-79837414D01*
X118058185Y-79761492D01*
X118062655Y-79674523D01*
X118064334Y-79570952D01*
X118064292Y-79502000D01*
X118059191Y-79304235D01*
X118045419Y-79126358D01*
X118022241Y-78964128D01*
X117988920Y-78813304D01*
X117944722Y-78669645D01*
X117899974Y-78554517D01*
X117808898Y-78361242D01*
X117704529Y-78177831D01*
X117589424Y-78008012D01*
X117466138Y-77855515D01*
X117337226Y-77724071D01*
X117320744Y-77709218D01*
X117254565Y-77651722D01*
X117190371Y-77598265D01*
X117131087Y-77551065D01*
X117079639Y-77512337D01*
X117038954Y-77484298D01*
X117011956Y-77469165D01*
X117002167Y-77467852D01*
X117000673Y-77481777D01*
X116999249Y-77519310D01*
X116997909Y-77578663D01*
X116996669Y-77658043D01*
X116995544Y-77755662D01*
X116994548Y-77869727D01*
X116993699Y-77998450D01*
X116993010Y-78140038D01*
X116992497Y-78292701D01*
X116992176Y-78454650D01*
X116992062Y-78624093D01*
X116700793Y-78624093D01*
X116700762Y-78593574D01*
X116700444Y-78444104D01*
X116699964Y-78297495D01*
X116699323Y-78155902D01*
X116698524Y-78021481D01*
X116697571Y-77896387D01*
X116696465Y-77782776D01*
X116695209Y-77682804D01*
X116693806Y-77598625D01*
X116692259Y-77532397D01*
X116690571Y-77486273D01*
X116688744Y-77462411D01*
X116687866Y-77459505D01*
X116671427Y-77465115D01*
X116639643Y-77485271D01*
X116595847Y-77517307D01*
X116543372Y-77558559D01*
X116485553Y-77606361D01*
X116425724Y-77658048D01*
X116367218Y-77710955D01*
X116333542Y-77742749D01*
X116202659Y-77881713D01*
X116080565Y-78036940D01*
X115969604Y-78204154D01*
X115872123Y-78379074D01*
X115790469Y-78557423D01*
X115726987Y-78734922D01*
X115684024Y-78907292D01*
X115678750Y-78936850D01*
X115667209Y-79013040D01*
X115655713Y-79101577D01*
X115644888Y-79196245D01*
X115635359Y-79290825D01*
X115627751Y-79379100D01*
X115622690Y-79454853D01*
X115620801Y-79511866D01*
X115620800Y-79512993D01*
X113411426Y-79512993D01*
X113396017Y-79507484D01*
X113318070Y-79480910D01*
X113232612Y-79452842D01*
X113145258Y-79425188D01*
X113126167Y-79419295D01*
X112962743Y-79367881D01*
X112821068Y-79320482D01*
X112698048Y-79275806D01*
X112590595Y-79232561D01*
X112495615Y-79189456D01*
X112410018Y-79145197D01*
X112330713Y-79098494D01*
X112280700Y-79065961D01*
X112179449Y-78988516D01*
X112093487Y-78901682D01*
X112019711Y-78801342D01*
X111955018Y-78683378D01*
X111905770Y-78568550D01*
X111836823Y-78359815D01*
X111787052Y-78138127D01*
X111756219Y-77902059D01*
X111744084Y-77650180D01*
X111743866Y-77603350D01*
X111743985Y-77545086D01*
X111744390Y-77494446D01*
X111745469Y-77448690D01*
X111747605Y-77405077D01*
X111751185Y-77360864D01*
X111756593Y-77313312D01*
X111764215Y-77259678D01*
X111774436Y-77197223D01*
X111787640Y-77123203D01*
X111804215Y-77034879D01*
X111824543Y-76929509D01*
X111849012Y-76804353D01*
X111874161Y-76676250D01*
X111914965Y-76464938D01*
X111949999Y-76275276D01*
X111979637Y-76104267D01*
X111985848Y-76065064D01*
X112472747Y-76065064D01*
X112477115Y-76205083D01*
X112484752Y-76255946D01*
X112497086Y-76305476D01*
X112518964Y-76374552D01*
X112549114Y-76459740D01*
X112586263Y-76557606D01*
X112629139Y-76664715D01*
X112676470Y-76777631D01*
X112687501Y-76803250D01*
X112716573Y-76871443D01*
X112751218Y-76954272D01*
X112787707Y-77042736D01*
X112822312Y-77127835D01*
X112833132Y-77154769D01*
X112874144Y-77252947D01*
X112910620Y-77330519D01*
X112944543Y-77391428D01*
X112973704Y-77434169D01*
X113100148Y-77588142D01*
X113228569Y-77718677D01*
X113361064Y-77827735D01*
X113473398Y-77902025D01*
X113541519Y-77937752D01*
X113625909Y-77974875D01*
X113717881Y-78010064D01*
X113808748Y-78039986D01*
X113887250Y-78060747D01*
X113952348Y-78070802D01*
X114031921Y-78076624D01*
X114117699Y-78078217D01*
X114201415Y-78075588D01*
X114274800Y-78068741D01*
X114319556Y-78060475D01*
X114399234Y-78034170D01*
X114488460Y-77994657D01*
X114578581Y-77946448D01*
X114660947Y-77894054D01*
X114709756Y-77856972D01*
X114761913Y-77808829D01*
X114825743Y-77742348D01*
X114898942Y-77660396D01*
X114979204Y-77565843D01*
X115064224Y-77461557D01*
X115151697Y-77350407D01*
X115239318Y-77235261D01*
X115324782Y-77118988D01*
X115405783Y-77004457D01*
X115465523Y-76916464D01*
X115547819Y-76788775D01*
X115625265Y-76661030D01*
X115696275Y-76536287D01*
X115759267Y-76417604D01*
X115812658Y-76308039D01*
X115854863Y-76210652D01*
X115884300Y-76128500D01*
X115895629Y-76085700D01*
X115908344Y-76001229D01*
X115914979Y-75901492D01*
X115915084Y-75882034D01*
X117791769Y-75882034D01*
X117797808Y-75984996D01*
X117810071Y-76074506D01*
X117811027Y-76079350D01*
X117832195Y-76154989D01*
X117867926Y-76247508D01*
X117916641Y-76354175D01*
X117976763Y-76472256D01*
X118046713Y-76599020D01*
X118124913Y-76731733D01*
X118209786Y-76867664D01*
X118299753Y-77004080D01*
X118393237Y-77138247D01*
X118488659Y-77267435D01*
X118522442Y-77311250D01*
X118631852Y-77449762D01*
X118729212Y-77568890D01*
X118816521Y-77670409D01*
X118895781Y-77756095D01*
X118968989Y-77827723D01*
X119038146Y-77887070D01*
X119105251Y-77935911D01*
X119172304Y-77976023D01*
X119241304Y-78009180D01*
X119314251Y-78037160D01*
X119354600Y-78050312D01*
X119396363Y-78062366D01*
X119433789Y-78070366D01*
X119473438Y-78074901D01*
X119521870Y-78076563D01*
X119585647Y-78075942D01*
X119627650Y-78074896D01*
X119705102Y-78072099D01*
X119764827Y-78067871D01*
X119814497Y-78061100D01*
X119861783Y-78050677D01*
X119914356Y-78035491D01*
X119926841Y-78031575D01*
X120068928Y-77981238D01*
X120192460Y-77924750D01*
X120304198Y-77858055D01*
X120410899Y-77777096D01*
X120519324Y-77677818D01*
X120524003Y-77673200D01*
X120630600Y-77560602D01*
X120718386Y-77452729D01*
X120785967Y-77351473D01*
X120831949Y-77258725D01*
X120834647Y-77251745D01*
X120850466Y-77211331D01*
X120874118Y-77152788D01*
X120903454Y-77081344D01*
X120936326Y-77002225D01*
X120970585Y-76920659D01*
X120976633Y-76906359D01*
X121035812Y-76765707D01*
X121085367Y-76645640D01*
X121126119Y-76543592D01*
X121158888Y-76456995D01*
X121184495Y-76383282D01*
X121203761Y-76319885D01*
X121217505Y-76264236D01*
X121226548Y-76213768D01*
X121231711Y-76165913D01*
X121233814Y-76118104D01*
X121233979Y-76101039D01*
X121221912Y-75951953D01*
X121186103Y-75805914D01*
X121128209Y-75666258D01*
X121049887Y-75536319D01*
X120952792Y-75419432D01*
X120849551Y-75327242D01*
X120769837Y-75272599D01*
X120677047Y-75219639D01*
X120580959Y-75173413D01*
X120491352Y-75138972D01*
X120475841Y-75134170D01*
X120426356Y-75121891D01*
X120353841Y-75107261D01*
X120260527Y-75090622D01*
X120148641Y-75072315D01*
X120020412Y-75052681D01*
X119878069Y-75032062D01*
X119723838Y-75010800D01*
X119559950Y-74989236D01*
X119392700Y-74968210D01*
X119282309Y-74954562D01*
X119170499Y-74940586D01*
X119062291Y-74926921D01*
X118962705Y-74914205D01*
X118876761Y-74903077D01*
X118809479Y-74894174D01*
X118793419Y-74891997D01*
X118698124Y-74879640D01*
X118622644Y-74871750D01*
X118561804Y-74868248D01*
X118510430Y-74869053D01*
X118463347Y-74874087D01*
X118415380Y-74883271D01*
X118403409Y-74886025D01*
X118284201Y-74926901D01*
X118174058Y-74990231D01*
X118074498Y-75074218D01*
X117987039Y-75177064D01*
X117913200Y-75296970D01*
X117854500Y-75432138D01*
X117812456Y-75580770D01*
X117811006Y-75587622D01*
X117798367Y-75673827D01*
X117791955Y-75775137D01*
X117791769Y-75882034D01*
X115915084Y-75882034D01*
X115915550Y-75795879D01*
X115910070Y-75693781D01*
X115898557Y-75604590D01*
X115894808Y-75585735D01*
X115851702Y-75432532D01*
X115792808Y-75294973D01*
X115719358Y-75174331D01*
X115632583Y-75071877D01*
X115533712Y-74988882D01*
X115423977Y-74926619D01*
X115304609Y-74886358D01*
X115202936Y-74870841D01*
X115117227Y-74869862D01*
X115017580Y-74877934D01*
X114973100Y-74884010D01*
X114918956Y-74891811D01*
X114845846Y-74901633D01*
X114760049Y-74912670D01*
X114667840Y-74924118D01*
X114575497Y-74935171D01*
X114560350Y-74936940D01*
X114394204Y-74956749D01*
X114229788Y-74977274D01*
X114069579Y-74998151D01*
X113916054Y-75019017D01*
X113771689Y-75039506D01*
X113638961Y-75059256D01*
X113520348Y-75077902D01*
X113418326Y-75095080D01*
X113335373Y-75110426D01*
X113273965Y-75123576D01*
X113252250Y-75129175D01*
X113106805Y-75181626D01*
X112967470Y-75253825D01*
X112840638Y-75342077D01*
X112761260Y-75412878D01*
X112666542Y-75523621D01*
X112589022Y-75648203D01*
X112530010Y-75782632D01*
X112490815Y-75922917D01*
X112472747Y-76065064D01*
X111985848Y-76065064D01*
X112004252Y-75948914D01*
X112024221Y-75806222D01*
X112039916Y-75673194D01*
X112051712Y-75546834D01*
X112059983Y-75424146D01*
X112065104Y-75302132D01*
X112067449Y-75177798D01*
X112067693Y-75126850D01*
X112066183Y-74998758D01*
X112061603Y-74868885D01*
X112054324Y-74742232D01*
X112044716Y-74623795D01*
X112033148Y-74518573D01*
X112019993Y-74431566D01*
X112013893Y-74400781D01*
X111994401Y-74321222D01*
X111966836Y-74224867D01*
X111930665Y-74110022D01*
X111885358Y-73974990D01*
X111840013Y-73845177D01*
X111795963Y-73718359D01*
X111760547Y-73609692D01*
X111732534Y-73513920D01*
X111710696Y-73425784D01*
X111693804Y-73340030D01*
X111680627Y-73251400D01*
X111669936Y-73154639D01*
X111664600Y-73095218D01*
X111657336Y-72996389D01*
X111651658Y-72893383D01*
X111647653Y-72790759D01*
X111645408Y-72693074D01*
X111645010Y-72604888D01*
X111646544Y-72530759D01*
X111650098Y-72475244D01*
X111652483Y-72456923D01*
X111676574Y-72353608D01*
X111712312Y-72268184D01*
X111762354Y-72194787D01*
X111780682Y-72174100D01*
X111822233Y-72129650D01*
X111641570Y-71940263D01*
X111460906Y-71750876D01*
X111393734Y-71825963D01*
X111307243Y-71936696D01*
X111239070Y-72056404D01*
X111187352Y-72189188D01*
X111150226Y-72339149D01*
X111143535Y-72376618D01*
X111133789Y-72459898D01*
X111128304Y-72563441D01*
X111126826Y-72682516D01*
X111129099Y-72812390D01*
X111134868Y-72948331D01*
X111143879Y-73085608D01*
X111155875Y-73219489D01*
X111170602Y-73345242D01*
X111187805Y-73458135D01*
X111206897Y-73552050D01*
X111221895Y-73609026D01*
X111243176Y-73682279D01*
X111268421Y-73764186D01*
X111295310Y-73847124D01*
X111309333Y-73888600D01*
X111356879Y-74027253D01*
X111396824Y-74145140D01*
X111429929Y-74245480D01*
X111456955Y-74331490D01*
X111478662Y-74406390D01*
X111495812Y-74473396D01*
X111509166Y-74535727D01*
X111519484Y-74596602D01*
X111527527Y-74659239D01*
X111534057Y-74726855D01*
X111539834Y-74802669D01*
X111545443Y-74887154D01*
X111552892Y-75160962D01*
X111541075Y-75450429D01*
X111512378Y-75736450D01*
X111502244Y-75817429D01*
X111494257Y-75874931D01*
X111486439Y-75910544D01*
X111476809Y-75925853D01*
X111463386Y-75922445D01*
X111444190Y-75901904D01*
X111417242Y-75865818D01*
X111392774Y-75832252D01*
X111242472Y-75610699D01*
X111101313Y-75367908D01*
X110970503Y-75106770D01*
X110851250Y-74830176D01*
X110744759Y-74541014D01*
X110652236Y-74242177D01*
X110574890Y-73936555D01*
X110547055Y-73806050D01*
X110487644Y-73467919D01*
X110448639Y-73143004D01*
X110430165Y-72829235D01*
X110432343Y-72524540D01*
X110455296Y-72226849D01*
X110499147Y-71934091D01*
X110564018Y-71644195D01*
X110650032Y-71355090D01*
X110700687Y-71211051D01*
X110830569Y-70895822D01*
X110983080Y-70591983D01*
X111157930Y-70299976D01*
X111354828Y-70020247D01*
X111573482Y-69753240D01*
X111813601Y-69499398D01*
X111838171Y-69475350D01*
X112045034Y-69285618D01*
X112255929Y-69115625D01*
X112475375Y-68962346D01*
X112707889Y-68822759D01*
X112957989Y-68693841D01*
X113111572Y-68623344D01*
X113448624Y-68486127D01*
X113805389Y-68362558D01*
X114179919Y-68253017D01*
X114570266Y-68157889D01*
X114974481Y-68077557D01*
X115390615Y-68012401D01*
X115816721Y-67962806D01*
X116250850Y-67929155D01*
X116691054Y-67911829D01*
X116738400Y-67910958D01*
X117015577Y-67908760D01*
X117272817Y-67911933D01*
X117272817Y-67911933D01*
G37*
X117272817Y-67911933D02*
X117515106Y-67920953D01*
X117747431Y-67936296D01*
X117974777Y-67958439D01*
X118202132Y-67987859D01*
X118434482Y-68025032D01*
X118676812Y-68070435D01*
X118903750Y-68117896D01*
X119188897Y-68183404D01*
X119465250Y-68253566D01*
X119730991Y-68327741D01*
X119984302Y-68405283D01*
X120223368Y-68485551D01*
X120446371Y-68567901D01*
X120651495Y-68651690D01*
X120836922Y-68736275D01*
X121000836Y-68821012D01*
X121141420Y-68905258D01*
X121157050Y-68915581D01*
X121286408Y-69007453D01*
X121425536Y-69116027D01*
X121569775Y-69237101D01*
X121714469Y-69366471D01*
X121854959Y-69499936D01*
X121986587Y-69633292D01*
X122104696Y-69762337D01*
X122136878Y-69799678D01*
X122354152Y-70074696D01*
X122548344Y-70360292D01*
X122719463Y-70656493D01*
X122867523Y-70963328D01*
X122992533Y-71280823D01*
X123094506Y-71609004D01*
X123173452Y-71947900D01*
X123229383Y-72297538D01*
X123247078Y-72458714D01*
X123254864Y-72562436D01*
X123260568Y-72683251D01*
X123264188Y-72815455D01*
X123265722Y-72953340D01*
X123265169Y-73091200D01*
X123262528Y-73223328D01*
X123257796Y-73344017D01*
X123250971Y-73447562D01*
X123247381Y-73485510D01*
X123200312Y-73813768D01*
X123129808Y-74134627D01*
X123036370Y-74446850D01*
X122920494Y-74749204D01*
X122782678Y-75040455D01*
X122623423Y-75319367D01*
X122443225Y-75584708D01*
X122351782Y-75703947D01*
X122312984Y-75751716D01*
X122279903Y-75790689D01*
X122255625Y-75817360D01*
X122243237Y-75828223D01*
X122242444Y-75828177D01*
X122235638Y-75809581D01*
X122228378Y-75769071D01*
X122220959Y-75710123D01*
X122213677Y-75636212D01*
X122206825Y-75550814D01*
X122200699Y-75457404D01*
X122195594Y-75359457D01*
X122191804Y-75260449D01*
X122190631Y-75217508D01*
X122188019Y-75053438D01*
X122189014Y-74909701D01*
X122194358Y-74781389D01*
X122204796Y-74663598D01*
X122221070Y-74551421D01*
X122243923Y-74439952D01*
X122274100Y-74324285D01*
X122312344Y-74199515D01*
X122359399Y-74060734D01*
X122370842Y-74028300D01*
X122418556Y-73892131D01*
X122458434Y-73773356D01*
X122491353Y-73667477D01*
X122518191Y-73569997D01*
X122539827Y-73476419D01*
X122557138Y-73382246D01*
X122571004Y-73282980D01*
X122582302Y-73174125D01*
X122591911Y-73051182D01*
X122600708Y-72909656D01*
X122605204Y-72828150D01*
X122610641Y-72654577D01*
X122606775Y-72501286D01*
X122593079Y-72364725D01*
X122569027Y-72241338D01*
X122534092Y-72127573D01*
X122487749Y-72019877D01*
X122484519Y-72013381D01*
X122454685Y-71959639D01*
X122418950Y-71904107D01*
X122380622Y-71850967D01*
X122343011Y-71804398D01*
X122309426Y-71768579D01*
X122283176Y-71747692D01*
X122271359Y-71744129D01*
X122258259Y-71753435D01*
X122230608Y-71778253D01*
X122191397Y-71815723D01*
X122143615Y-71862985D01*
X122090250Y-71917178D01*
X122086927Y-71920597D01*
X121917304Y-72095236D01*
X121968529Y-72160041D01*
X122007084Y-72215851D01*
X122038318Y-72277779D01*
X122062458Y-72348082D01*
X122079736Y-72429016D01*
X122090378Y-72522840D01*
X122094615Y-72631810D01*
X122092675Y-72758182D01*
X122084787Y-72904214D01*
X122071181Y-73072164D01*
X122066314Y-73124081D01*
X122055813Y-73219514D01*
X122042869Y-73307444D01*
X122026229Y-73392962D01*
X122004638Y-73481161D01*
X121976845Y-73577130D01*
X121941595Y-73685961D01*
X121897635Y-73812746D01*
X121894851Y-73820590D01*
X121846032Y-73960039D01*
X121805782Y-74080426D01*
X121773057Y-74186197D01*
X121746809Y-74281800D01*
X121725995Y-74371683D01*
X121709568Y-74460291D01*
X121696483Y-74552074D01*
X121685694Y-74651477D01*
X121677590Y-74744764D01*
X121671626Y-74849873D01*
X121668597Y-74973529D01*
X121668363Y-75109065D01*
X121670784Y-75249815D01*
X121675720Y-75389112D01*
X121683031Y-75520290D01*
X121692578Y-75636681D01*
X121697191Y-75679300D01*
X121716251Y-75825054D01*
X121741436Y-75992184D01*
X121772220Y-76177552D01*
X121808077Y-76378019D01*
X121848481Y-76590447D01*
X121857789Y-76637772D01*
X121886080Y-76781005D01*
X121909823Y-76902032D01*
X121929453Y-77003559D01*
X121945399Y-77088286D01*
X121958096Y-77158917D01*
X121967974Y-77218154D01*
X121975467Y-77268700D01*
X121981006Y-77313259D01*
X121985024Y-77354532D01*
X121987952Y-77395223D01*
X121990223Y-77438034D01*
X121991888Y-77476350D01*
X121992430Y-77701957D01*
X121975897Y-77924692D01*
X121943003Y-78140665D01*
X121894461Y-78345985D01*
X121830985Y-78536760D01*
X121772940Y-78670150D01*
X121731508Y-78748837D01*
X121686685Y-78819849D01*
X121636461Y-78884476D01*
X121578824Y-78944007D01*
X121511763Y-78999731D01*
X121433266Y-79052937D01*
X121341323Y-79104913D01*
X121233921Y-79156949D01*
X121109049Y-79210335D01*
X120964696Y-79266358D01*
X120798851Y-79326309D01*
X120690404Y-79363942D01*
X120544836Y-79415241D01*
X120418916Y-79462918D01*
X120307581Y-79509218D01*
X120205767Y-79556382D01*
X120108408Y-79606655D01*
X120010440Y-79662277D01*
X119992053Y-79673209D01*
X119858616Y-79755496D01*
X119744305Y-79831690D01*
X119644650Y-79905104D01*
X119555185Y-79979051D01*
X119471441Y-80056846D01*
X119461367Y-80066792D01*
X119327831Y-80214578D01*
X119218012Y-80369637D01*
X119131178Y-80533620D01*
X119066598Y-80708183D01*
X119023541Y-80894979D01*
X119001273Y-81095660D01*
X119000586Y-81108116D01*
X118992650Y-81260083D01*
X118878350Y-81295512D01*
X118687881Y-81347223D01*
X118474211Y-81391433D01*
X118236996Y-81428204D01*
X117975893Y-81457593D01*
X117898266Y-81464524D01*
X117747512Y-81475504D01*
X117576377Y-81484907D01*
X117389836Y-81492649D01*
X117192864Y-81498647D01*
X116990437Y-81502817D01*
X116787530Y-81505077D01*
X116589118Y-81505343D01*
X116400177Y-81503533D01*
X116225680Y-81499562D01*
X116097050Y-81494645D01*
X115844883Y-81479742D01*
X115614321Y-81459498D01*
X115402044Y-81433459D01*
X115204731Y-81401168D01*
X115019061Y-81362170D01*
X114887375Y-81328772D01*
X114744500Y-81289807D01*
X114744500Y-81220903D01*
X114732023Y-81019384D01*
X114694837Y-80822851D01*
X114633305Y-80632235D01*
X114547792Y-80448467D01*
X114438663Y-80272477D01*
X114308993Y-80108267D01*
X114240801Y-80038734D01*
X114154076Y-79962481D01*
X114053605Y-79882849D01*
X113944178Y-79803179D01*
X113830584Y-79726814D01*
X113717609Y-79657095D01*
X113610043Y-79597364D01*
X113512675Y-79550962D01*
X113506919Y-79548532D01*
X113460838Y-79530660D01*
X113411426Y-79512993D01*
X115620800Y-79512993D01*
X115625468Y-79637354D01*
X115638708Y-79765603D01*
X115659366Y-79891525D01*
X115686291Y-80008906D01*
X115718333Y-80111531D01*
X115742473Y-80169750D01*
X115777755Y-80231721D01*
X115821626Y-80290177D01*
X115868530Y-80338699D01*
X115912912Y-80370868D01*
X115919250Y-80373997D01*
X115974558Y-80386059D01*
X116042507Y-80378907D01*
X116119733Y-80353054D01*
X116149809Y-80338939D01*
X116213112Y-80300593D01*
X116287265Y-80244868D01*
X116368443Y-80175118D01*
X116452824Y-80094697D01*
X116536584Y-80006960D01*
X116566950Y-79972975D01*
X116609671Y-79923830D01*
X116646608Y-79880551D01*
X116674346Y-79847197D01*
X116689473Y-79827823D01*
X116690849Y-79825702D01*
X116692702Y-79810041D01*
X116694359Y-79771374D01*
X116695824Y-79711855D01*
X116697098Y-79633642D01*
X116698184Y-79538888D01*
X116699085Y-79429751D01*
X116699804Y-79308385D01*
X116700344Y-79176946D01*
X116700707Y-79037590D01*
X116700896Y-78892472D01*
X116700913Y-78743748D01*
X116700793Y-78624093D01*
X116992062Y-78624093D01*
X116992063Y-78650353D01*
X116992252Y-79822562D01*
X117080047Y-79925974D01*
X117136107Y-79989263D01*
X117200037Y-80056952D01*
X117267393Y-80124728D01*
X117333731Y-80188278D01*
X117394606Y-80243289D01*
X117445573Y-80285449D01*
X117465615Y-80300130D01*
X117522999Y-80335253D01*
X117582683Y-80364648D01*
X117638597Y-80385925D01*
X117684668Y-80396697D01*
X117709950Y-80396250D01*
X117730985Y-80391381D01*
X117757895Y-80385388D01*
X117809060Y-80362202D01*
X117860266Y-80316827D01*
X117909249Y-80252367D01*
X117953743Y-80171928D01*
X117991481Y-80078615D01*
X117999344Y-80054450D01*
X118021505Y-79978338D01*
X118038263Y-79907844D01*
X118050273Y-79837414D01*
X118058185Y-79761492D01*
X118062655Y-79674523D01*
X118064334Y-79570952D01*
X118064292Y-79502000D01*
X118059191Y-79304235D01*
X118045419Y-79126358D01*
X118022241Y-78964128D01*
X117988920Y-78813304D01*
X117944722Y-78669645D01*
X117899974Y-78554517D01*
X117808898Y-78361242D01*
X117704529Y-78177831D01*
X117589424Y-78008012D01*
X117466138Y-77855515D01*
X117337226Y-77724071D01*
X117320744Y-77709218D01*
X117254565Y-77651722D01*
X117190371Y-77598265D01*
X117131087Y-77551065D01*
X117079639Y-77512337D01*
X117038954Y-77484298D01*
X117011956Y-77469165D01*
X117002167Y-77467852D01*
X117000673Y-77481777D01*
X116999249Y-77519310D01*
X116997909Y-77578663D01*
X116996669Y-77658043D01*
X116995544Y-77755662D01*
X116994548Y-77869727D01*
X116993699Y-77998450D01*
X116993010Y-78140038D01*
X116992497Y-78292701D01*
X116992176Y-78454650D01*
X116992062Y-78624093D01*
X116700793Y-78624093D01*
X116700762Y-78593574D01*
X116700444Y-78444104D01*
X116699964Y-78297495D01*
X116699323Y-78155902D01*
X116698524Y-78021481D01*
X116697571Y-77896387D01*
X116696465Y-77782776D01*
X116695209Y-77682804D01*
X116693806Y-77598625D01*
X116692259Y-77532397D01*
X116690571Y-77486273D01*
X116688744Y-77462411D01*
X116687866Y-77459505D01*
X116671427Y-77465115D01*
X116639643Y-77485271D01*
X116595847Y-77517307D01*
X116543372Y-77558559D01*
X116485553Y-77606361D01*
X116425724Y-77658048D01*
X116367218Y-77710955D01*
X116333542Y-77742749D01*
X116202659Y-77881713D01*
X116080565Y-78036940D01*
X115969604Y-78204154D01*
X115872123Y-78379074D01*
X115790469Y-78557423D01*
X115726987Y-78734922D01*
X115684024Y-78907292D01*
X115678750Y-78936850D01*
X115667209Y-79013040D01*
X115655713Y-79101577D01*
X115644888Y-79196245D01*
X115635359Y-79290825D01*
X115627751Y-79379100D01*
X115622690Y-79454853D01*
X115620801Y-79511866D01*
X115620800Y-79512993D01*
X113411426Y-79512993D01*
X113396017Y-79507484D01*
X113318070Y-79480910D01*
X113232612Y-79452842D01*
X113145258Y-79425188D01*
X113126167Y-79419295D01*
X112962743Y-79367881D01*
X112821068Y-79320482D01*
X112698048Y-79275806D01*
X112590595Y-79232561D01*
X112495615Y-79189456D01*
X112410018Y-79145197D01*
X112330713Y-79098494D01*
X112280700Y-79065961D01*
X112179449Y-78988516D01*
X112093487Y-78901682D01*
X112019711Y-78801342D01*
X111955018Y-78683378D01*
X111905770Y-78568550D01*
X111836823Y-78359815D01*
X111787052Y-78138127D01*
X111756219Y-77902059D01*
X111744084Y-77650180D01*
X111743866Y-77603350D01*
X111743985Y-77545086D01*
X111744390Y-77494446D01*
X111745469Y-77448690D01*
X111747605Y-77405077D01*
X111751185Y-77360864D01*
X111756593Y-77313312D01*
X111764215Y-77259678D01*
X111774436Y-77197223D01*
X111787640Y-77123203D01*
X111804215Y-77034879D01*
X111824543Y-76929509D01*
X111849012Y-76804353D01*
X111874161Y-76676250D01*
X111914965Y-76464938D01*
X111949999Y-76275276D01*
X111979637Y-76104267D01*
X111985848Y-76065064D01*
X112472747Y-76065064D01*
X112477115Y-76205083D01*
X112484752Y-76255946D01*
X112497086Y-76305476D01*
X112518964Y-76374552D01*
X112549114Y-76459740D01*
X112586263Y-76557606D01*
X112629139Y-76664715D01*
X112676470Y-76777631D01*
X112687501Y-76803250D01*
X112716573Y-76871443D01*
X112751218Y-76954272D01*
X112787707Y-77042736D01*
X112822312Y-77127835D01*
X112833132Y-77154769D01*
X112874144Y-77252947D01*
X112910620Y-77330519D01*
X112944543Y-77391428D01*
X112973704Y-77434169D01*
X113100148Y-77588142D01*
X113228569Y-77718677D01*
X113361064Y-77827735D01*
X113473398Y-77902025D01*
X113541519Y-77937752D01*
X113625909Y-77974875D01*
X113717881Y-78010064D01*
X113808748Y-78039986D01*
X113887250Y-78060747D01*
X113952348Y-78070802D01*
X114031921Y-78076624D01*
X114117699Y-78078217D01*
X114201415Y-78075588D01*
X114274800Y-78068741D01*
X114319556Y-78060475D01*
X114399234Y-78034170D01*
X114488460Y-77994657D01*
X114578581Y-77946448D01*
X114660947Y-77894054D01*
X114709756Y-77856972D01*
X114761913Y-77808829D01*
X114825743Y-77742348D01*
X114898942Y-77660396D01*
X114979204Y-77565843D01*
X115064224Y-77461557D01*
X115151697Y-77350407D01*
X115239318Y-77235261D01*
X115324782Y-77118988D01*
X115405783Y-77004457D01*
X115465523Y-76916464D01*
X115547819Y-76788775D01*
X115625265Y-76661030D01*
X115696275Y-76536287D01*
X115759267Y-76417604D01*
X115812658Y-76308039D01*
X115854863Y-76210652D01*
X115884300Y-76128500D01*
X115895629Y-76085700D01*
X115908344Y-76001229D01*
X115914979Y-75901492D01*
X115915084Y-75882034D01*
X117791769Y-75882034D01*
X117797808Y-75984996D01*
X117810071Y-76074506D01*
X117811027Y-76079350D01*
X117832195Y-76154989D01*
X117867926Y-76247508D01*
X117916641Y-76354175D01*
X117976763Y-76472256D01*
X118046713Y-76599020D01*
X118124913Y-76731733D01*
X118209786Y-76867664D01*
X118299753Y-77004080D01*
X118393237Y-77138247D01*
X118488659Y-77267435D01*
X118522442Y-77311250D01*
X118631852Y-77449762D01*
X118729212Y-77568890D01*
X118816521Y-77670409D01*
X118895781Y-77756095D01*
X118968989Y-77827723D01*
X119038146Y-77887070D01*
X119105251Y-77935911D01*
X119172304Y-77976023D01*
X119241304Y-78009180D01*
X119314251Y-78037160D01*
X119354600Y-78050312D01*
X119396363Y-78062366D01*
X119433789Y-78070366D01*
X119473438Y-78074901D01*
X119521870Y-78076563D01*
X119585647Y-78075942D01*
X119627650Y-78074896D01*
X119705102Y-78072099D01*
X119764827Y-78067871D01*
X119814497Y-78061100D01*
X119861783Y-78050677D01*
X119914356Y-78035491D01*
X119926841Y-78031575D01*
X120068928Y-77981238D01*
X120192460Y-77924750D01*
X120304198Y-77858055D01*
X120410899Y-77777096D01*
X120519324Y-77677818D01*
X120524003Y-77673200D01*
X120630600Y-77560602D01*
X120718386Y-77452729D01*
X120785967Y-77351473D01*
X120831949Y-77258725D01*
X120834647Y-77251745D01*
X120850466Y-77211331D01*
X120874118Y-77152788D01*
X120903454Y-77081344D01*
X120936326Y-77002225D01*
X120970585Y-76920659D01*
X120976633Y-76906359D01*
X121035812Y-76765707D01*
X121085367Y-76645640D01*
X121126119Y-76543592D01*
X121158888Y-76456995D01*
X121184495Y-76383282D01*
X121203761Y-76319885D01*
X121217505Y-76264236D01*
X121226548Y-76213768D01*
X121231711Y-76165913D01*
X121233814Y-76118104D01*
X121233979Y-76101039D01*
X121221912Y-75951953D01*
X121186103Y-75805914D01*
X121128209Y-75666258D01*
X121049887Y-75536319D01*
X120952792Y-75419432D01*
X120849551Y-75327242D01*
X120769837Y-75272599D01*
X120677047Y-75219639D01*
X120580959Y-75173413D01*
X120491352Y-75138972D01*
X120475841Y-75134170D01*
X120426356Y-75121891D01*
X120353841Y-75107261D01*
X120260527Y-75090622D01*
X120148641Y-75072315D01*
X120020412Y-75052681D01*
X119878069Y-75032062D01*
X119723838Y-75010800D01*
X119559950Y-74989236D01*
X119392700Y-74968210D01*
X119282309Y-74954562D01*
X119170499Y-74940586D01*
X119062291Y-74926921D01*
X118962705Y-74914205D01*
X118876761Y-74903077D01*
X118809479Y-74894174D01*
X118793419Y-74891997D01*
X118698124Y-74879640D01*
X118622644Y-74871750D01*
X118561804Y-74868248D01*
X118510430Y-74869053D01*
X118463347Y-74874087D01*
X118415380Y-74883271D01*
X118403409Y-74886025D01*
X118284201Y-74926901D01*
X118174058Y-74990231D01*
X118074498Y-75074218D01*
X117987039Y-75177064D01*
X117913200Y-75296970D01*
X117854500Y-75432138D01*
X117812456Y-75580770D01*
X117811006Y-75587622D01*
X117798367Y-75673827D01*
X117791955Y-75775137D01*
X117791769Y-75882034D01*
X115915084Y-75882034D01*
X115915550Y-75795879D01*
X115910070Y-75693781D01*
X115898557Y-75604590D01*
X115894808Y-75585735D01*
X115851702Y-75432532D01*
X115792808Y-75294973D01*
X115719358Y-75174331D01*
X115632583Y-75071877D01*
X115533712Y-74988882D01*
X115423977Y-74926619D01*
X115304609Y-74886358D01*
X115202936Y-74870841D01*
X115117227Y-74869862D01*
X115017580Y-74877934D01*
X114973100Y-74884010D01*
X114918956Y-74891811D01*
X114845846Y-74901633D01*
X114760049Y-74912670D01*
X114667840Y-74924118D01*
X114575497Y-74935171D01*
X114560350Y-74936940D01*
X114394204Y-74956749D01*
X114229788Y-74977274D01*
X114069579Y-74998151D01*
X113916054Y-75019017D01*
X113771689Y-75039506D01*
X113638961Y-75059256D01*
X113520348Y-75077902D01*
X113418326Y-75095080D01*
X113335373Y-75110426D01*
X113273965Y-75123576D01*
X113252250Y-75129175D01*
X113106805Y-75181626D01*
X112967470Y-75253825D01*
X112840638Y-75342077D01*
X112761260Y-75412878D01*
X112666542Y-75523621D01*
X112589022Y-75648203D01*
X112530010Y-75782632D01*
X112490815Y-75922917D01*
X112472747Y-76065064D01*
X111985848Y-76065064D01*
X112004252Y-75948914D01*
X112024221Y-75806222D01*
X112039916Y-75673194D01*
X112051712Y-75546834D01*
X112059983Y-75424146D01*
X112065104Y-75302132D01*
X112067449Y-75177798D01*
X112067693Y-75126850D01*
X112066183Y-74998758D01*
X112061603Y-74868885D01*
X112054324Y-74742232D01*
X112044716Y-74623795D01*
X112033148Y-74518573D01*
X112019993Y-74431566D01*
X112013893Y-74400781D01*
X111994401Y-74321222D01*
X111966836Y-74224867D01*
X111930665Y-74110022D01*
X111885358Y-73974990D01*
X111840013Y-73845177D01*
X111795963Y-73718359D01*
X111760547Y-73609692D01*
X111732534Y-73513920D01*
X111710696Y-73425784D01*
X111693804Y-73340030D01*
X111680627Y-73251400D01*
X111669936Y-73154639D01*
X111664600Y-73095218D01*
X111657336Y-72996389D01*
X111651658Y-72893383D01*
X111647653Y-72790759D01*
X111645408Y-72693074D01*
X111645010Y-72604888D01*
X111646544Y-72530759D01*
X111650098Y-72475244D01*
X111652483Y-72456923D01*
X111676574Y-72353608D01*
X111712312Y-72268184D01*
X111762354Y-72194787D01*
X111780682Y-72174100D01*
X111822233Y-72129650D01*
X111641570Y-71940263D01*
X111460906Y-71750876D01*
X111393734Y-71825963D01*
X111307243Y-71936696D01*
X111239070Y-72056404D01*
X111187352Y-72189188D01*
X111150226Y-72339149D01*
X111143535Y-72376618D01*
X111133789Y-72459898D01*
X111128304Y-72563441D01*
X111126826Y-72682516D01*
X111129099Y-72812390D01*
X111134868Y-72948331D01*
X111143879Y-73085608D01*
X111155875Y-73219489D01*
X111170602Y-73345242D01*
X111187805Y-73458135D01*
X111206897Y-73552050D01*
X111221895Y-73609026D01*
X111243176Y-73682279D01*
X111268421Y-73764186D01*
X111295310Y-73847124D01*
X111309333Y-73888600D01*
X111356879Y-74027253D01*
X111396824Y-74145140D01*
X111429929Y-74245480D01*
X111456955Y-74331490D01*
X111478662Y-74406390D01*
X111495812Y-74473396D01*
X111509166Y-74535727D01*
X111519484Y-74596602D01*
X111527527Y-74659239D01*
X111534057Y-74726855D01*
X111539834Y-74802669D01*
X111545443Y-74887154D01*
X111552892Y-75160962D01*
X111541075Y-75450429D01*
X111512378Y-75736450D01*
X111502244Y-75817429D01*
X111494257Y-75874931D01*
X111486439Y-75910544D01*
X111476809Y-75925853D01*
X111463386Y-75922445D01*
X111444190Y-75901904D01*
X111417242Y-75865818D01*
X111392774Y-75832252D01*
X111242472Y-75610699D01*
X111101313Y-75367908D01*
X110970503Y-75106770D01*
X110851250Y-74830176D01*
X110744759Y-74541014D01*
X110652236Y-74242177D01*
X110574890Y-73936555D01*
X110547055Y-73806050D01*
X110487644Y-73467919D01*
X110448639Y-73143004D01*
X110430165Y-72829235D01*
X110432343Y-72524540D01*
X110455296Y-72226849D01*
X110499147Y-71934091D01*
X110564018Y-71644195D01*
X110650032Y-71355090D01*
X110700687Y-71211051D01*
X110830569Y-70895822D01*
X110983080Y-70591983D01*
X111157930Y-70299976D01*
X111354828Y-70020247D01*
X111573482Y-69753240D01*
X111813601Y-69499398D01*
X111838171Y-69475350D01*
X112045034Y-69285618D01*
X112255929Y-69115625D01*
X112475375Y-68962346D01*
X112707889Y-68822759D01*
X112957989Y-68693841D01*
X113111572Y-68623344D01*
X113448624Y-68486127D01*
X113805389Y-68362558D01*
X114179919Y-68253017D01*
X114570266Y-68157889D01*
X114974481Y-68077557D01*
X115390615Y-68012401D01*
X115816721Y-67962806D01*
X116250850Y-67929155D01*
X116691054Y-67911829D01*
X116738400Y-67910958D01*
X117015577Y-67908760D01*
X117272817Y-67911933D01*
D11*
X120499286Y-142168571D02*
X120642143Y-142216190D01*
X120689762Y-142263810D01*
X120737381Y-142359048D01*
X120737381Y-142501905D01*
X120689762Y-142597143D01*
X120642143Y-142644762D01*
X120546905Y-142692381D01*
X120165952Y-142692381D01*
X120165952Y-141692381D01*
X120499286Y-141692381D01*
X120594524Y-141740000D01*
X120642143Y-141787619D01*
X120689762Y-141882857D01*
X120689762Y-141978095D01*
X120642143Y-142073333D01*
X120594524Y-142120952D01*
X120499286Y-142168571D01*
X120165952Y-142168571D01*
X121023095Y-141692381D02*
X121594524Y-141692381D01*
X121308809Y-142692381D02*
X121308809Y-141692381D01*
X122451667Y-142692381D02*
X121880238Y-142692381D01*
X122165952Y-142692381D02*
X122165952Y-141692381D01*
X122070714Y-141835238D01*
X121975476Y-141930476D01*
X121880238Y-141978095D01*
X104608334Y-103457143D02*
X104560715Y-103504762D01*
X104417858Y-103552381D01*
X104322620Y-103552381D01*
X104179762Y-103504762D01*
X104084524Y-103409524D01*
X104036905Y-103314286D01*
X103989286Y-103123810D01*
X103989286Y-102980952D01*
X104036905Y-102790476D01*
X104084524Y-102695238D01*
X104179762Y-102600000D01*
X104322620Y-102552381D01*
X104417858Y-102552381D01*
X104560715Y-102600000D01*
X104608334Y-102647619D01*
X105560715Y-103552381D02*
X104989286Y-103552381D01*
X105275000Y-103552381D02*
X105275000Y-102552381D01*
X105179762Y-102695238D01*
X105084524Y-102790476D01*
X104989286Y-102838095D01*
X113662381Y-111228095D02*
X112662381Y-111228095D01*
X112662381Y-110990000D01*
X112710000Y-110847142D01*
X112805238Y-110751904D01*
X112900476Y-110704285D01*
X113090952Y-110656666D01*
X113233810Y-110656666D01*
X113424286Y-110704285D01*
X113519524Y-110751904D01*
X113614762Y-110847142D01*
X113662381Y-110990000D01*
X113662381Y-111228095D01*
X113662381Y-109704285D02*
X113662381Y-110275714D01*
X113662381Y-109990000D02*
X112662381Y-109990000D01*
X112805238Y-110085238D01*
X112900476Y-110180476D01*
X112948095Y-110275714D01*
X112228334Y-102942381D02*
X111895000Y-102466190D01*
X111656905Y-102942381D02*
X111656905Y-101942381D01*
X112037858Y-101942381D01*
X112133096Y-101990000D01*
X112180715Y-102037619D01*
X112228334Y-102132857D01*
X112228334Y-102275714D01*
X112180715Y-102370952D01*
X112133096Y-102418571D01*
X112037858Y-102466190D01*
X111656905Y-102466190D01*
X113180715Y-102942381D02*
X112609286Y-102942381D01*
X112895000Y-102942381D02*
X112895000Y-101942381D01*
X112799762Y-102085238D01*
X112704524Y-102180476D01*
X112609286Y-102228095D01*
X104013095Y-102027381D02*
X104013095Y-102836905D01*
X104060714Y-102932143D01*
X104108333Y-102979762D01*
X104203571Y-103027381D01*
X104394048Y-103027381D01*
X104489286Y-102979762D01*
X104536905Y-102932143D01*
X104584524Y-102836905D01*
X104584524Y-102027381D01*
X105584524Y-103027381D02*
X105013095Y-103027381D01*
X105298809Y-103027381D02*
X105298809Y-102027381D01*
X105203571Y-102170238D01*
X105108333Y-102265476D01*
X105013095Y-102313095D01*
M02*
